#N canvas 683 94 749 677 10;
#X obj 116 133 mrpeach/unpackOSC;
#X obj 119 113 mrpeach/pipelist;
#X obj 122 88 mrpeach/udpreceive 12345;
#X obj 111 177 mrpeach/routeOSC /norte /sur;
#X floatatom 205 214 5 0 0 0 - - -;
#X floatatom 108 203 5 0 0 0 - - -;
#X floatatom 109 347 5 0 0 0 - - -;
#X obj 242 572 print presence-norte;
#X obj 114 154 mrpeach/routeOSC /user-none;
#X obj 203 234 t b f;
#X text 163 350 1 hay alguen \, 0 no;
#X msg 142 469 disconnect;
#X obj 149 531 tgl 15 0 empty empty 1=connected 20 8 0 8 -4034 -257985
-1 1 1;
#X text 202 515 see:;
#X obj 135 603 sel 0;
#X obj 52 479 bng 15 250 50 0 empty empty empty 17 7 0 10 -262144 -1
-1;
#X obj 152 443 mrpeach/packOSC;
#X text 331 448 to blender;
#X msg 151 416 send /game/user-presence \$1;
#X obj 151 496 mrpeach/udpsend;
#X obj 358 579 print presence-sur;
#X obj -15 392 loadbang;
#X msg -35 447 connect 1270.0.1 8886;
#X obj 116 298 expr if($f1==1 && $f2==1 \, 2 \, 1);
#X connect 0 0 8 0;
#X connect 1 0 0 0;
#X connect 2 0 1 0;
#X connect 3 0 5 0;
#X connect 3 1 4 0;
#X connect 4 0 9 0;
#X connect 5 0 23 0;
#X connect 6 0 18 0;
#X connect 8 0 3 0;
#X connect 9 0 5 0;
#X connect 9 1 23 1;
#X connect 11 0 19 0;
#X connect 12 0 14 0;
#X connect 14 0 15 0;
#X connect 15 0 22 0;
#X connect 16 0 19 0;
#X connect 18 0 16 0;
#X connect 19 0 12 0;
#X connect 21 0 22 0;
#X connect 22 0 19 0;
#X connect 23 0 6 0;
