#N canvas 431 94 749 677 10;
#X obj 126 143 mrpeach/unpackOSC;
#X obj 129 123 mrpeach/pipelist;
#X obj 132 98 mrpeach/udpreceive 12345;
#X floatatom 121 210 5 0 0 0 - - -;
#X obj 252 582 print presence-norte;
#X text 173 360 1 hay alguen \, 0 no;
#X msg 152 479 disconnect;
#X obj 159 541 tgl 15 0 empty empty 1=connected 20 8 0 8 -4034 -257985
-1 0 1;
#X text 212 525 see:;
#X obj 145 613 sel 0;
#X obj 62 489 bng 15 250 50 0 empty empty empty 17 7 0 10 -262144 -1
-1;
#X obj 162 453 mrpeach/packOSC;
#X text 341 458 to blender;
#X msg 161 426 send /game/user-presence \$1;
#X obj 161 506 mrpeach/udpsend;
#X obj 368 589 print presence-sur;
#X obj 124 164 mrpeach/routeOSC /user-none;
#X obj 121 187 mrpeach/routeOSC /norte;
#X obj 9 410 loadbang;
#X msg -24 458 connect 127.0.0.1 8886;
#X obj 121 295 + 1;
#X connect 0 0 16 0;
#X connect 1 0 0 0;
#X connect 2 0 1 0;
#X connect 3 0 20 0;
#X connect 6 0 14 0;
#X connect 7 0 9 0;
#X connect 9 0 10 0;
#X connect 10 0 19 0;
#X connect 11 0 14 0;
#X connect 13 0 11 0;
#X connect 14 0 7 0;
#X connect 16 0 17 0;
#X connect 17 0 3 0;
#X connect 18 0 19 0;
#X connect 19 0 14 0;
#X connect 20 0 13 0;
