#N canvas 584 270 610 600 10;
#X msg 247 416 disconnect;
#X obj 224 484 tgl 15 0 empty empty 1=connected 20 8 0 8 -4034 -257985
-1 1 1;
#X text 277 468 see:;
#X msg 126 210 bufsize 1024;
#X obj 214 507 sel 0;
#X obj 125 364 bng 15 250 50 0 empty empty empty 17 7 0 10 -262144
-1 -1;
#X obj 224 449 mrpeach/udpsend;
#X obj 256 313 mrpeach/packOSC;
#X obj 193 105 list append;
#X obj 219 140 list append;
#X obj 222 166 list trim;
#X msg 281 248 [;
#X msg 222 245 ];
#X obj 241 217 t b a b;
#X obj 127 181 loadbang;
#N canvas 61 122 450 300 getMobilData 1;
#X obj 105 117 mrpeach/unpackOSC;
#X obj 99 93 mrpeach/pipelist;
#N canvas 884 251 796 330 mobil 0;
#X msg 268 130 /acc \$1 \$2 \$3;
#X msg 442 131 /ori \$1 \$2 \$3;
#X obj 266 202 list append;
#X obj 258 234 outlet;
#X obj 262 -44 inlet;
#X obj 465 0 inlet;
#X obj 232 159 list append;
#X msg 248 12 /touch 0 0;
#X obj 243 -7 t b a;
#X connect 0 0 6 1;
#X connect 1 0 3 0;
#X connect 4 0 8 0;
#X connect 5 0 1 0;
#X connect 6 0 2 0;
#X connect 7 0 6 0;
#X connect 8 0 7 0;
#X connect 8 1 0 0;
#X restore 106 210 pd mobil;
#X obj 102 69 mrpeach/udpreceive 7112;
#X text 151 42 mobil;
#X obj 110 241 outlet;
#X obj 100 162 mrpeach/routeOSC /acc /ori;
#X connect 0 0 6 0;
#X connect 1 0 0 0;
#X connect 2 0 5 0;
#X connect 3 0 1 0;
#X connect 6 0 2 0;
#X connect 6 1 2 1;
#X restore 207 18 pd getMobilData;
#N canvas 466 328 450 300 getNorthData 0;
#X obj 100 119 mrpeach/unpackOSC;
#X obj 100 94 mrpeach/pipelist;
#X obj 103 70 mrpeach/udpreceive 7110;
#X text 142 32 norte;
#X obj 97 203 outlet;
#X msg 98 165 /norte \$1 \$2;
#X obj 96 140 mrpeach/routeOSC /user-norte;
#X connect 0 0 6 0;
#X connect 1 0 0 0;
#X connect 2 0 1 0;
#X connect 5 0 4 0;
#X connect 6 0 5 0;
#X restore 267 54 pd getNorthData;
#N canvas 67 113 450 300 getSouthData 0;
#X obj 100 119 mrpeach/unpackOSC;
#X obj 100 94 mrpeach/pipelist;
#X text 142 32 norte;
#X obj 97 203 outlet;
#X obj 103 70 mrpeach/udpreceive 7111;
#X obj 96 140 mrpeach/routeOSC /user-sur;
#X msg 98 165 /sur \$1 \$2;
#X connect 0 0 5 0;
#X connect 1 0 0 0;
#X connect 4 0 1 0;
#X connect 5 0 6 0;
#X connect 6 0 3 0;
#X restore 337 91 pd getSouthData;
#X obj 396 477 print;
#X obj 34 51 bng 15 250 50 0 empty empty empty 17 7 0 10 -262144 -1
-1;
#X text -38 40 start;
#X obj 66 55 loadbang;
#N canvas 758 729 450 300 wa 0;
#X obj 145 60 inlet;
#X obj 151 95 > 65;
#X obj 145 120 sel 1;
#X obj 150 208 shell;
#X msg 147 167 killall -9 pd-extended;
#X connect 0 0 1 0;
#X connect 1 0 2 0;
#X connect 2 0 4 0;
#X connect 4 0 3 0;
#X restore 360 415 pd wa;
#X obj 236 382 spigot 1;
#X obj 315 373 tgl 15 0 empty empty empty 17 7 0 10 -262144 -1 -1 0
1;
#X obj 341 349 loadbang;
#X obj 92 556 print;
#X obj 229 194 prepend send;
#X obj 363 164 prepend send;
#X msg 39 330 connect 127.0.0.1 8888;
#X obj 33 281 loadbang;
#X obj 358 206 getUserPresence;
#X obj 39 213 route /norte;
#X connect 0 0 6 0;
#X connect 1 0 4 0;
#X connect 3 0 7 0;
#X connect 4 0 5 0;
#X connect 5 0 29 0;
#X connect 6 0 1 0;
#X connect 7 0 23 0;
#X connect 8 0 9 0;
#X connect 9 0 10 0;
#X connect 10 0 27 0;
#X connect 11 0 7 0;
#X connect 12 0 7 0;
#X connect 13 0 12 0;
#X connect 13 1 7 0;
#X connect 13 2 11 0;
#X connect 14 0 3 0;
#X connect 15 0 8 0;
#X connect 16 0 8 1;
#X connect 17 0 9 1;
#X connect 21 0 6 0;
#X connect 23 0 6 0;
#X connect 27 0 13 0;
#X connect 28 0 7 0;
#X connect 29 0 6 0;
#X connect 30 0 29 0;
