#N canvas 116 754 638 159 10;
#N canvas 753 540 450 300 freenect 0;
#X obj -359 116 gemhead;
#N canvas 1090 99 827 305 properties 0;
#X obj 95 235 outlet;
#X obj 3 -6 cnv 15 140 220 empty empty empty 20 12 0 14 -204800 -66577
0;
#X msg 8 178 led \$1;
#X obj 8 59 vradio 15 1 0 6 empty empty empty 0 -8 0 10 -262144 -1
-1 0;
#X floatatom 8 155 5 0 0 0 - - -;
#X msg 85 178 angle \$1;
#X obj 85 23 vsl 15 128 -30 30 0 0 empty empty empty 0 -9 0 10 -262144
-1 -1 6350 1;
#X floatatom 85 159 5 0 0 0 - - -;
#X msg 85 -2 0;
#X text 24 73 GREEN;
#X text 25 57 OFF;
#X text 24 89 RED;
#X text 24 104 YELLOW;
#X text 24 119 BLINK_GR;
#X text 24 133 BLINK_R_Y;
#X obj 149 84 cnv 15 320 120 empty empty empty 20 12 0 14 -4034 -66577
0;
#X obj 160 121 vradio 15 1 0 2 empty empty empty 0 -8 0 10 -262144
-1 -1 0;
#X floatatom 160 156 5 0 0 0 - - -;
#X obj 225 122 vradio 15 1 0 2 empty empty empty 0 -8 0 10 -262144
-1 -1 1;
#X floatatom 225 157 5 0 0 0 - - -;
#X msg 287 179 audio \$1;
#X obj 287 123 vradio 15 1 0 2 empty empty empty 0 -8 0 10 -262144
-1 -1 0;
#X floatatom 287 158 5 0 0 0 - - -;
#X msg 160 177 rgb \$1;
#X msg 225 178 depth \$1;
#X text 152 84 activate/deactivate streams;
#X text 306 120 OFF;
#X text 306 134 ON;
#X text 154 98 save cpu power by just activating necessary streams!
;
#X obj 477 85 cnv 15 315 120 empty empty empty 20 12 0 14 -232576 -66577
0;
#X obj 480 94 vradio 15 1 0 4 empty empty empty 0 -8 0 10 -262144 -1
-1 2;
#X floatatom 480 159 5 0 0 0 - - -;
#X msg 480 179 depth_output \$1;
#X text 500 92 Color -> best for visual representation;
#X text 630 148 b = 0 \, a = 0;
#X text 303 -23 properties for pix_freenect;
#X text 498 62 DEPTH OUTPUT;
#X text 171 63 STREAMS;
#X text 26 -25 LED \, ANGLE;
#X text 629 135 r->3 msbits \, g ->8 lsbits;
#X text 501 108 Grayscale -> easy to handle;
#X text 502 138 Raw YUV (2 bytes) |;
#X text 502 123 Raw RGBA -> 11 bit output in r&g channel;
#N canvas 451 438 894 267 libfreenect_modes 0;
#X msg 548 182 video_mode \$1;
#X obj 548 51 vradio 15 1 0 7 empty empty empty 0 -8 0 10 -262144 -1
-1 0;
#X floatatom 548 161 5 0 0 0 - - -;
#X msg 150 178 depth_mode \$1;
#X obj 150 50 vradio 15 1 0 6 empty empty empty 0 -8 0 10 -262144 -1
-1 5;
#X floatatom 150 160 5 0 0 0 - - -;
#X text 8 2 LIBFREENECT MODES:;
#X text 569 80 IR MODE;
#X text 569 51 RGB (use this);
#X obj 150 213 outlet;
#X text 125 2 this is just for experimenting...;
#X text 434 50 FREENECT_VIDEO_RGB;
#X text 422 65 FREENECT_VIDEO_BAYER;
#X text 404 79 FREENECT_VIDEO_IR_10BIT;
#X text 364 94 FREENECT_VIDEO_IR_10BIT_PACKED;
#X text 411 111 FREENECT_VIDEO_YUV_RGB;
#X text 411 125 FREENECT_VIDEO_YUV_RAW;
#X text 423 140 FREENECT_VIDEO_DUMMY;
#X text 24 48 FREENECT_DEPTH_11BIT;
#X text 24 63 FREENECT_DEPTH_10BIT;
#X text -19 78 FREENECT_DEPTH_11BIT_PACKED;
#X text -19 94 FREENECT_DEPTH_10BIT_PACKED;
#X text 42 123 FREENECT_DEPTH_MM;
#X text 67 27 DEPTH MODES;
#X text 530 26 RGB MODES;
#X text 149 27 !!also check depth_output!!;
#X obj 668 114 vradio 15 1 0 3 empty empty empty 0 -8 0 10 -262144
-1 -1 0;
#X floatatom 668 164 5 0 0 0 - - -;
#X msg 668 185 resolution \$1;
#X text 688 128 MEDIUM (default);
#X text 665 91 RGB RESOLUTION;
#X text 688 143 HIGH (restart rgb stream!);
#X text -6 109 FREENECT_DEPTH_REGISTERED;
#X text 688 113 LOW (not displaying correctly);
#X text 172 108 aligned to rgb \, 16 bit [mm] output;
#X text 171 122 unaligned \, 16 bit [mm] output;
#X text 170 47 raw 11 bit depth output;
#X msg 83 166 5;
#X obj 34 188 loadbang;
#X connect 0 0 9 0;
#X connect 1 0 2 0;
#X connect 2 0 0 0;
#X connect 3 0 9 0;
#X connect 4 0 5 0;
#X connect 5 0 3 0;
#X connect 26 0 27 0;
#X connect 27 0 28 0;
#X connect 28 0 9 0;
#X connect 37 0 4 0;
#X connect 38 0 37 0;
#X restore 323 220 pd libfreenect_modes;
#X text 459 220 <- change between raw or mm output \, aligned depth
output \, resolution \, ...;
#X obj 152 5 loadbang;
#X msg 461 31 2;
#X obj 356 -18 loadbang;
#X msg 328 57 1;
#X msg 186 34 0;
#X msg 388 33 0;
#X obj 327 31 del 550;
#X connect 2 0 0 0;
#X connect 3 0 4 0;
#X connect 4 0 2 0;
#X connect 5 0 0 0;
#X connect 6 0 7 0;
#X connect 7 0 5 0;
#X connect 8 0 6 0;
#X connect 16 0 17 0;
#X connect 17 0 23 0;
#X connect 18 0 19 0;
#X connect 19 0 24 0;
#X connect 20 0 0 0;
#X connect 21 0 22 0;
#X connect 22 0 20 0;
#X connect 23 0 0 0;
#X connect 24 0 0 0;
#X connect 30 0 31 0;
#X connect 31 0 32 0;
#X connect 32 0 0 0;
#X connect 43 0 0 0;
#X connect 45 0 8 0;
#X connect 46 0 30 0;
#X connect 47 0 46 0;
#X connect 47 0 50 0;
#X connect 47 0 51 0;
#X connect 48 0 18 0;
#X connect 49 0 16 0;
#X connect 50 0 18 0;
#X connect 51 0 48 0;
#X connect 51 0 49 0;
#X restore -451 104 pd properties;
#X obj -242 104 gemhead;
#X text -523 150 output acceleration;
#X msg -524 131 accel;
#X obj -524 83 tgl 15 0 empty empty accel 17 7 0 10 -262144 -1 -1 0
1;
#X obj -524 105 metro 500;
#X text -360 97 gemhead for rgb;
#X text -245 84 and for depth;
#X msg -371 75 bang;
#N canvas 1 95 529 247 audio 0;
#X obj 58 -8 list length;
#X obj 58 12 print rcvd_samples;
#X obj 58 -60 inlet;
#X obj 108 -60 inlet;
#X obj 158 -60 inlet;
#X obj 208 -60 inlet;
#X text 403 -99 to be implemented:;
#X text 32 99 1 on the left side \, 3 on the right side under the grill
;
#X text 29 85 microphones are facing downwards;
#X text 404 -83 resampling in pd;
#X text 254 -20 1: left side mic;
#X text 256 -4 2: right side 1st;
#X text 264 26 4: right side 3rd (right outside);
#X text 259 11 3: right side 2nd;
#X text 49 -105 bang to first inlet outputs a list of samples;
#X text 49 -90 received since last |bang (;
#X text 256 -60 list (float) (float) (float) .......;
#X text 47 114 kinect is running at about 16kHz samplerate;
#X connect 0 0 1 0;
#X connect 2 0 0 0;
#X restore -315 192 pd audio;
#X text -332 72 audio output;
#N canvas 176 428 455 231 acceleration 0;
#X obj 71 34 inlet;
#X obj 71 56 route accel tilt_angle;
#X floatatom 135 87 5 0 0 0 - - -;
#X obj 71 131 unpack 0 0 0;
#X floatatom 51 154 8 0 0 0 - - -;
#X floatatom 105 154 8 0 0 0 - - -;
#X floatatom 160 154 8 0 0 0 - - -;
#X text 68 3 accel message to first inlet outputs accelerator data
at last outlet;
#X text 218 152 accelerometer data for X \, Y \, Z -axis;
#X text 172 87 Raw tilt motor angle encoder information;
#X obj 17 183 expr sqrt($f1*$f1+$f2*$f2+$f3*$f3);
#X floatatom 17 203 5 0 0 0 - - -;
#X text 53 202 gravity acceleration should be 9.81;
#X connect 0 0 1 0;
#X connect 1 0 3 0;
#X connect 1 0 10 0;
#X connect 1 1 2 0;
#X connect 3 0 4 0;
#X connect 3 1 5 0;
#X connect 3 2 6 0;
#X connect 10 0 11 0;
#X restore -235 194 pd acceleration;
#N canvas 0 22 364 224 init_trick 0;
#X obj 131 39 route 1;
#X obj 131 9 route gem_state;
#X obj 131 69 delay 500;
#X msg 131 103 accel;
#X obj 91 133 outlet;
#X obj 91 -15 inlet;
#X text 22 179 trigger the accelerometer output to start streaming
;
#X text 24 162 a little trick to start the streams;
#X connect 0 0 2 0;
#X connect 1 0 0 0;
#X connect 2 0 3 0;
#X connect 3 0 4 0;
#X connect 5 0 1 0;
#X connect 5 0 4 0;
#X restore -359 136 pd init_trick;
#X msg -440 177 info;
#X obj -379 221 outlet;
#X obj -374 158 pix_freenect 0 1 1 0;
#X connect 0 0 13 0;
#X connect 1 0 16 0;
#X connect 2 0 16 1;
#X connect 4 0 16 0;
#X connect 5 0 6 0;
#X connect 6 0 4 0;
#X connect 9 0 16 0;
#X connect 13 0 16 0;
#X connect 14 0 16 0;
#X connect 16 1 15 0;
#X connect 16 2 10 0;
#X connect 16 3 10 1;
#X connect 16 4 10 2;
#X connect 16 5 10 3;
#X connect 16 6 12 0;
#X restore -2070 -2623 pd freenect;
#X obj -1855 -2665 gemwin;
#X obj -2072 -2520 pix_threshold_depth;
#X floatatom -1726 -2600 5 0 0 0 max_value(m) - -;
#X floatatom -1860 -2597 5 0 0 0 min_value(m) - -;
#X obj -1737 -2552 * 1000;
#X obj -1860 -2579 * 1000;
#N canvas 586 135 464 262 trim 1;
#X obj 129 220 outlet;
#X msg 54 175 trim \$1;
#X obj 54 155 tgl 15 0 empty empty ON/OFF 17 7 0 10 -262144 -1 -1 1
1;
#X obj 129 115 nbx 5 14 -1e+37 1e+37 0 0 empty empty empty 0 -8 0 10
-262144 -1 -1 -10 256;
#X obj 129 137 * 1000;
#X obj 199 115 nbx 5 14 -1e+37 1e+37 0 0 empty empty empty 0 -8 0 10
-262144 -1 -1 2.98 256;
#X obj 199 137 * 1000;
#X obj 284 109 nbx 5 14 -1e+37 1e+37 0 0 empty empty empty 0 -8 0 10
-262144 -1 -1 0 256;
#X msg 279 161 y_min \$1;
#X obj 279 137 * 1000;
#X obj 348 114 nbx 5 14 -1e+37 1e+37 0 0 empty empty empty 0 -8 0 10
-262144 -1 -1 2.17 256;
#X obj 349 137 * 1000;
#X msg 349 161 y_max \$1;
#X msg 129 161 x_min \$1;
#X msg 199 161 x_max \$1;
#X text 66 112 in meters;
#X text 130 97 left;
#X text 199 97 right;
#X text 282 93 bottom;
#X text 351 96 top;
#X obj 40 135 loadbang;
#X obj 342 47 loadbang;
#X msg 159 69 2;
#X msg 122 70 -10;
#X obj 124 11 loadbang;
#X msg 349 69 2.17;
#X msg 273 52 0.75;
#X connect 1 0 0 0;
#X connect 2 0 1 0;
#X connect 3 0 4 0;
#X connect 4 0 13 0;
#X connect 5 0 6 0;
#X connect 6 0 14 0;
#X connect 7 0 9 0;
#X connect 8 0 0 0;
#X connect 9 0 8 0;
#X connect 10 0 11 0;
#X connect 11 0 12 0;
#X connect 12 0 0 0;
#X connect 13 0 0 0;
#X connect 14 0 0 0;
#X connect 20 0 2 0;
#X connect 21 0 25 0;
#X connect 22 0 5 0;
#X connect 23 0 3 0;
#X connect 24 0 23 0;
#X connect 24 0 22 0;
#X connect 24 0 26 0;
#X connect 25 0 10 0;
#X restore -2043 -2561 pd trim;
#X text -1814 -2620 distance;
#X obj -1780 -2652 loadbang;
#X obj -1855 -2717 loadbang;
#X obj -1955 -2331 abs;
#X obj -1956 -2351 expr $f1 + $f2 -480;
#N canvas 379 217 450 300 contournTracker 0;
#X floatatom 150 10 5 0 0 0 - - -;
#X obj 33 42 pix_opencv_contours_boundingrect;
#X obj 201 -6 loadbang;
#X obj 134 116 unpack f f f f f;
#X obj 125 148 sel -1;
#X obj 169 167 sel -1;
#X msg 211 27 5000;
#X obj 241 171 sel 0;
#X obj 222 208 sel 0;
#X obj 0 183 outlet pix;
#X obj 110 245 outlet x;
#X obj 197 252 outlet y;
#X obj 250 245 outlet dimX;
#X obj 292 227 outlet dimY;
#X obj 29 -27 inlet pix;
#X floatatom 104 191 5 0 0 0 - - -;
#X connect 0 0 1 1;
#X connect 1 0 9 0;
#X connect 1 1 3 0;
#X connect 2 0 6 0;
#X connect 3 1 4 0;
#X connect 3 2 5 0;
#X connect 3 3 8 0;
#X connect 3 4 7 0;
#X connect 4 0 15 0;
#X connect 4 1 10 0;
#X connect 5 1 11 0;
#X connect 6 0 0 0;
#X connect 7 1 13 0;
#X connect 8 1 12 0;
#X connect 14 0 1 0;
#X restore -2070 -2435 pd contournTracker;
#X obj -2070 -2408 t a a;
#N canvas 645 356 450 300 cropper 0;
#X obj -92 -218 separator;
#X obj 111 -101 pix_crop;
#X obj 262 -219 inlet abs;
#X obj -105 -273 inlet pix;
#X obj 110 -65 outlet;
#X obj 179 -250 inlet x;
#X obj -20 -239 inlet width;
#X obj 71 -245 inlet height;
#X connect 0 0 1 0;
#X connect 1 0 4 0;
#X connect 2 0 1 4;
#X connect 3 0 0 0;
#X connect 5 0 1 3;
#X connect 6 0 1 1;
#X connect 7 0 1 2;
#X restore -2052 -2308 pd cropper;
#N canvas 18 605 450 300 mainScreen 0;
#X obj 184 231 pix_texture;
#X obj 181 77 pix_separator;
#X obj 181 48 separator;
#X obj 180 18 inlet;
#X obj 181 127 translateXYZ 0 0 0;
#X obj 327 230 pix_texture;
#X obj 324 76 pix_separator;
#X obj 324 48 separator;
#X obj 324 126 translateXYZ 0 0 0;
#X obj 340 174 colorRGB 1 0 0;
#X obj 324 18 gemhead;
#X obj 181 277 rectangle 4 3;
#X obj 324 274 rectangle 5 4;
#X connect 0 0 11 0;
#X connect 1 0 4 0;
#X connect 2 0 1 0;
#X connect 3 0 2 0;
#X connect 4 0 0 0;
#X connect 5 0 12 0;
#X connect 6 0 8 0;
#X connect 7 0 6 0;
#X connect 8 0 9 0;
#X connect 9 0 5 0;
#X connect 10 0 7 0;
#X restore -2024 -2222 pd mainScreen;
#X text -1961 -2536 r;
#N canvas 1 89 450 300 scaling 0;
#X obj 117 125 inlet;
#X obj 148 232 outlet;
#X obj 149 184 autoscale 0 1;
#X msg 160 153 load 0 640;
#X obj 164 124 loadbang;
#X connect 0 0 2 0;
#X connect 2 0 1 0;
#X connect 3 0 2 0;
#X connect 4 0 3 0;
#X restore -2038 -2090 pd scaling;
#N canvas 986 352 574 440 sender 0;
#X obj 97 30 inlet;
#X obj 412 36 inlet;
#X obj 144 29 inlet;
#X obj 106 287 sel 0;
#X obj 61 294 tgl 15 0 empty empty empty 17 7 0 10 -262144 -1 -1 0
1;
#X msg 333 258 disconnect;
#X obj 106 272 tgl 15 0 empty empty connected 20 7 0 8 -24198 -241291
-1 1 1;
#X obj 99 221 mrpeach/packOSC;
#X obj 99 132 pack f f;
#X obj 97 188 prepend send;
#X obj 100 252 mrpeach/udpsend;
#X obj 123 317 bng 15 250 50 0 empty empty empty 17 7 0 10 -262144
-1 -1;
#X obj 309 194 loadbang;
#X msg 98 161 /user-norte \$1 \$2;
#X obj 30 111 mapping/speedlimiter 1;
#X obj 173 111 mapping/speedlimiter 1;
#X obj 97 74 spigot 0;
#X obj 153 73 spigot 0;
#X msg 280 222 connect 127.0.0.1 7110;
#X obj -82 -29 loadbang;
#X msg -87 47 send /user-norte 0 4.63;
#X obj -67 4 del 10000;
#X connect 0 0 16 0;
#X connect 1 0 16 1;
#X connect 1 0 17 1;
#X connect 2 0 17 0;
#X connect 3 0 11 0;
#X connect 5 0 10 0;
#X connect 6 0 3 0;
#X connect 7 0 10 0;
#X connect 8 0 13 0;
#X connect 9 0 7 0;
#X connect 10 0 6 0;
#X connect 11 0 18 0;
#X connect 12 0 18 0;
#X connect 13 0 9 0;
#X connect 14 0 8 0;
#X connect 15 0 8 1;
#X connect 16 0 14 0;
#X connect 17 0 15 0;
#X connect 18 0 10 0;
#X connect 19 0 21 0;
#X connect 20 0 7 0;
#X connect 21 0 20 0;
#X restore -2012 -1989 pd sender;
#X obj -1855 -1995 tgl 15 0 empty empty empty 17 7 0 10 -262144 -1
-1 1 1;
#N canvas 308 379 303 237 stuffs 0;
#X obj 73 -99 r x_size;
#X obj 131 -99 r y_size;
#X obj 131 -48 *;
#X obj 131 -73 t b f;
#X obj 131 -23 s size;
#X msg 91 9 \; R resize \$1 \; G resize \$1 \;;
#X connect 0 0 2 0;
#X connect 1 0 3 0;
#X connect 2 0 5 0;
#X connect 2 0 4 0;
#X connect 3 0 2 0;
#X connect 3 1 2 1;
#X restore -1544 -2591 pd stuffs;
#X obj -1816 -2002 loadbang;
#X obj -1999 -2479 pix_texture;
#X obj -2003 -2456 rectangle 4 3;
#X obj -1533 -2650 table R;
#X obj -1546 -2618 table G;
#N canvas 63 115 450 300 cropScreen 0;
#X obj 121 98 pix_texture;
#X obj 124 165 colorRGB 0 1 1;
#X obj 123 41 inlet;
#X obj 122 129 translateXYZ 2 -2 0;
#X obj 117 197 rectangle 2 1.5;
#X connect 0 0 3 0;
#X connect 1 0 4 0;
#X connect 2 0 0 0;
#X connect 3 0 1 0;
#X restore -1826 -2189 pd cropScreen;
#N canvas 777 176 484 510 tRGtables 0;
#X obj 68 -134 until;
#X obj 68 -164 t b l;
#X obj 68 -108 list;
#X obj 156 -83 bang;
#X obj 68 -83 list split 1;
#X obj 68 -44 t b l;
#X obj 100 16 + 1;
#X obj 68 40 % 4;
#X msg 99 -10 1;
#X text 191 -83 <-- separate each single value;
#X text 101 42 <-- counter from 0 to 3;
#X obj 68 76 pack;
#X obj 68 16 f 0;
#X obj 68 98 route 0 1 2;
#X text 146 98 <-- route R \, G & B values;
#X obj 68 -195 inlet;
#X obj -9 183 + 1;
#X obj -37 183 f 0;
#X obj -37 204 %;
#X obj 16 183 r size;
#X obj 16 204 - 1;
#X obj -62 160 t f b;
#X obj -62 226 tabwrite R;
#X obj 141 183 + 1;
#X obj 113 183 f 0;
#X obj 113 204 %;
#X obj 166 183 r size;
#X obj 166 204 - 1;
#X obj 88 160 t f b;
#X obj 88 226 tabwrite G;
#X text -18 254 store R \, G or B values in its related table;
#X connect 0 0 2 0;
#X connect 1 0 0 0;
#X connect 1 1 2 1;
#X connect 2 0 4 0;
#X connect 3 0 0 1;
#X connect 4 0 5 0;
#X connect 4 1 2 1;
#X connect 4 2 3 0;
#X connect 5 0 12 0;
#X connect 5 1 11 1;
#X connect 6 0 12 1;
#X connect 7 0 11 0;
#X connect 8 0 12 1;
#X connect 11 0 13 0;
#X connect 12 0 6 0;
#X connect 12 0 7 0;
#X connect 13 0 21 0;
#X connect 13 1 28 0;
#X connect 15 0 1 0;
#X connect 16 0 17 1;
#X connect 17 0 16 0;
#X connect 17 0 18 0;
#X connect 18 0 22 1;
#X connect 19 0 20 0;
#X connect 20 0 18 1;
#X connect 21 0 22 0;
#X connect 21 1 17 0;
#X connect 23 0 24 1;
#X connect 24 0 23 0;
#X connect 24 0 25 0;
#X connect 25 0 29 1;
#X connect 26 0 27 0;
#X connect 27 0 25 1;
#X connect 28 0 29 0;
#X connect 28 1 24 0;
#X restore -1791 -2219 pd tRGtables;
#N canvas 586 183 483 407 dump 0;
#X obj 96 -16 inlet;
#X obj 96 180 pix_resize;
#X msg 282 143 dimen \$1 \$2;
#X floatatom 312 53 5 0 0 2 x_size - x_size;
#X floatatom 354 53 5 0 0 2 y_size - y_size;
#X obj 282 119 pack;
#X obj 312 -18 loadbang;
#X obj 282 96 r x_size;
#X obj 342 96 r y_size;
#X obj 342 119 t b f;
#X obj 96 223 pix_dump;
#X obj 139 253 outlet;
#X text 27 146 capture DV;
#X text 17 180 resize video;
#X text 6 223 videodata list;
#X obj 69 269 outlet;
#X obj 132 68 t a b;
#X msg 312 5 8;
#X connect 0 0 16 0;
#X connect 1 0 10 0;
#X connect 2 0 1 0;
#X connect 5 0 2 0;
#X connect 6 0 17 0;
#X connect 7 0 5 0;
#X connect 8 0 9 0;
#X connect 9 0 5 0;
#X connect 9 1 5 1;
#X connect 10 0 15 0;
#X connect 10 1 11 0;
#X connect 16 0 1 0;
#X connect 16 1 10 0;
#X connect 17 0 3 0;
#X connect 17 0 4 0;
#X connect 17 0 5 0;
#X connect 17 0 9 0;
#X coords 0 407 1 406 85 54 0;
#X restore -1831 -2251 pd dump;
#X floatatom -1668 -2199 5 0 0 0 - - -;
#X floatatom -1629 -2198 5 0 0 0 - - -;
#X obj -1853 -2275 t b a;
#N canvas 427 423 654 336 calcDist 1;
#X obj -797 -301 / 1000;
#N canvas 175 296 450 300 calculateDIstance 0;
#X obj 96 165 expr $f1 * 65536 + $f2 * 256 * -0.0030711 + 3.33095;
#X obj 94 135 inlet;
#X obj 392 132 inlet;
#X obj 96 194 outlet;
#X connect 0 0 3 0;
#X connect 1 0 0 0;
#X connect 2 0 0 1;
#X restore -780 -330 pd calculateDIstance;
#X obj -740 -413 t b b;
#N canvas 192 301 832 672 calculateGrennBlackPixel 0;
#X obj -5415 565 list-minmax;
#X obj -5573 226 tabdump G;
#X obj -5577 253 list-map;
#X obj -5459 335 sel -1;
#X obj -5425 366 + 1;
#X obj -5540 271 expr $f1 \; if($f1 !=0 \, $f1 \, -1) \;;
#X obj -5451 459 sel -1 1;
#X obj -5425 491 bng 15 250 50 0 empty empty empty 17 7 0 10 -262144
-1 -1;
#X obj -5584 368 print pixelNeri;
#X obj -5457 364 f 1;
#X msg -5411 332 1;
#X obj -5559 200 t b b b;
#X obj -5469 384 f;
#X obj -5413 516 list;
#X obj -5300 499 print Greenmap;
#X obj -5453 425 expr if($f1 > 15 \, -1 \, 1) \;;
#X obj -5557 171 inlet;
#X obj -5266 547 outlet;
#X text -5376 366 Calculate number of black pikselin each frame;
#X text -5277 439 if there are more than 15 drop the frame;
#X obj -5095 513 print Redmap;
#X obj -5141 480 list-delete0;
#X obj -5210 626 print verdemin;
#X obj -5063 603 print verdemax;
#X obj -5367 621 print oldverdemax;
#X obj -5336 599 smooth 0.4;
#X connect 0 1 25 0;
#X connect 1 0 2 0;
#X connect 2 0 0 0;
#X connect 2 1 5 0;
#X connect 3 0 9 0;
#X connect 4 0 9 1;
#X connect 5 1 3 0;
#X connect 6 1 7 0;
#X connect 7 0 13 0;
#X connect 9 0 4 0;
#X connect 9 0 12 1;
#X connect 10 0 9 1;
#X connect 11 0 12 0;
#X connect 11 1 1 0;
#X connect 11 2 10 0;
#X connect 12 0 15 0;
#X connect 15 0 6 0;
#X connect 16 0 11 0;
#X connect 25 0 17 0;
#X restore -686 -375 pd calculateGrennBlackPixel;
#N canvas 5 84 832 672 calculateRedBlackPixel 0;
#X obj -5415 565 list-minmax;
#X obj -5572 248 list-map;
#X obj -5459 335 sel -1;
#X obj -5425 366 + 1;
#X obj -5540 271 expr $f1 \; if($f1 !=0 \, $f1 \, -1) \;;
#X obj -5469 454 sel -1 1;
#X obj -5425 491 bng 15 250 50 0 empty empty empty 17 7 0 10 -262144
-1 -1;
#X obj -5457 364 f 1;
#X msg -5411 332 1;
#X obj -5559 200 t b b b;
#X obj -5469 384 f;
#X obj -5416 518 list;
#X obj -5557 171 inlet;
#X obj -5262 544 outlet;
#X obj -5584 368 print pixelNeriRossi;
#X obj -5573 226 tabdump R;
#X text -5386 356 Calculate number of black pikselin each frame;
#X text -5287 429 if there are more than 15 drop the frame;
#X obj -5453 425 expr if($f1 > 15 \, -1 \, 1) \;;
#X obj -5345 587 smooth 0.4;
#X connect 0 1 19 0;
#X connect 1 0 0 0;
#X connect 1 1 4 0;
#X connect 2 0 7 0;
#X connect 3 0 7 1;
#X connect 4 1 2 0;
#X connect 5 1 6 0;
#X connect 6 0 11 0;
#X connect 7 0 3 0;
#X connect 7 0 10 1;
#X connect 8 0 7 1;
#X connect 9 0 10 0;
#X connect 9 1 15 0;
#X connect 9 2 8 0;
#X connect 10 0 18 0;
#X connect 12 0 9 0;
#X connect 15 0 1 0;
#X connect 18 0 5 0;
#X connect 19 0 13 0;
#X restore -849 -376 pd calculateRedBlackPixel;
#X obj -797 -284 expr if($f1 >4.62 \, 4.62 \, $f1);
#X obj -744 -454 inlet;
#X obj -801 -220 outlet;
#X obj -732 -243 autoscale 0 0.5;
#X floatatom -850 -255 5 0 0 0 - - -;
#X floatatom -780 -255 5 0 0 0 - - -;
#X obj -550 -252 sel 1;
#X floatatom -514 -277 5 0 0 0 - - -;
#X obj -561 -207 mrpeach/packOSC;
#X obj -562 -176 mrpeach/udpsend;
#X obj -419 -235 loadbang;
#X obj -562 -154 sel 0;
#X obj -511 -138 bng 15 250 50 0 empty empty empty 17 7 0 10 -262144
-1 -1;
#X msg -544 -228 send /pdrestart 1;
#X msg -403 -175 connect 127.0.0.1 9999;
#X obj -552 -278 > 25;
#X connect 0 0 5 0;
#X connect 0 0 10 0;
#X connect 0 0 12 0;
#X connect 0 0 20 0;
#X connect 1 0 0 0;
#X connect 2 0 4 0;
#X connect 2 1 3 0;
#X connect 3 0 1 1;
#X connect 4 0 1 0;
#X connect 5 0 7 0;
#X connect 6 0 2 0;
#X connect 11 0 18 0;
#X connect 13 0 14 0;
#X connect 14 0 16 0;
#X connect 15 0 19 0;
#X connect 16 0 17 0;
#X connect 17 0 19 0;
#X connect 18 0 13 0;
#X connect 19 0 14 0;
#X connect 20 0 11 0;
#X restore -1853 -2162 pd calcDist;
#X text -1677 -2223 scale Min Max output;
#X obj -1647 -2252 s sec;
#X floatatom -1654 -2297 5 0 0 0 - - -;
#X text -1648 -2327 segundos de espera (user presence);
#X text -1777 -2443 CC - Luca Carrubba - estereotips.net for Audiogames
installation www.audiogames.tk;
#X obj -1555 -2226;
#X msg -1561 -2247;
#X msg -1570 -2255 1;
#X msg -1536 -2265 0.5;
#X floatatom -1822 -2075 5 0 0 0 - - -;
#X msg -1892 -2622 0.01;
#X msg -1687 -2680 destroy;
#X msg -1619 -2680 title norte;
#X floatatom -1988 -2158 5 0 0 0 - - -;
#X msg -1715 -2625 4.9;
#X msg -1853 -2692 dimen 650 550 \, create \, 1;
#N canvas 309 185 414 357 user-noone 0;
#N canvas 863 369 450 300 sendValue 0;
#X obj -5736 193 mrpeach/udpsend;
#X obj -5737 124 mrpeach/packOSC;
#X obj -5612 123 loadbang;
#X obj -5740 234 sel 0;
#X obj -5738 215 tgl 15 0 empty empty empty 17 7 0 10 -262144 -1 -1
1 1;
#X obj -5617 235 bng 15 250 50 0 empty empty empty 17 7 0 10 -262144
-1 -1;
#X msg -5599 194 disconnect;
#X obj -5738 66 inlet;
#X obj -5739 267 outlet;
#X msg -5737 95 send /user-none/norte \$1;
#X msg -5612 157 connect 127.0.0.1 12345;
#X connect 0 0 4 0;
#X connect 1 0 0 0;
#X connect 2 0 10 0;
#X connect 3 0 10 0;
#X connect 4 0 3 0;
#X connect 4 0 8 0;
#X connect 5 0 10 0;
#X connect 6 0 0 0;
#X connect 7 0 9 0;
#X connect 9 0 1 0;
#X connect 10 0 0 0;
#X restore -5998 73 pd sendValue;
#X obj -5994 106 tgl 15 0 empty empty empty 17 7 0 10 -262144 -1 -1
1 1;
#X obj -6003 27 inlet;
#X floatatom -5893 74 5 0 0 0 - - -;
#X connect 0 0 1 0;
#X connect 2 0 3 0;
#X connect 2 0 0 0;
#X restore -1877 -2465 pd user-noone;
#N canvas 618 102 747 664 detection 0;
#X obj -1202 172 pix_mean_color;
#X obj -1121 213 unpack 0 0 0 0;
#X obj -1067 242 +;
#X obj -1094 271 +;
#X obj -1121 300 +;
#X obj -1238 85 inlet;
#X obj -999 172 pix_texture;
#X obj -1001 220 rectangle 4 3;
#X floatatom -1125 353 5 0 0 0 - - -;
#X obj -1202 145 pix_movement 0.999;
#X obj -1123 328 > 0.02;
#X obj -1122 394 outlet;
#X floatatom -1024 326 5 0 0 0 - - -;
#X floatatom -1025 374 5 0 0 0 - - -;
#X obj -1025 345 > 0.001;
#X connect 0 0 6 0;
#X connect 0 1 1 0;
#X connect 1 0 4 0;
#X connect 1 0 12 0;
#X connect 1 1 3 0;
#X connect 1 2 2 0;
#X connect 1 3 2 1;
#X connect 2 0 3 1;
#X connect 3 0 4 1;
#X connect 4 0 10 0;
#X connect 5 0 9 0;
#X connect 6 0 7 0;
#X connect 9 0 0 0;
#X connect 10 0 8 0;
#X connect 12 0 14 0;
#X connect 13 0 11 0;
#X connect 14 0 13 0;
#X restore -1877 -2495 pd detection;
#X connect 0 0 2 0;
#X connect 0 0 51 0;
#X connect 2 0 13 0;
#X connect 3 0 5 0;
#X connect 4 0 6 0;
#X connect 5 0 2 3;
#X connect 6 0 2 2;
#X connect 7 0 2 0;
#X connect 9 0 48 0;
#X connect 9 0 44 0;
#X connect 10 0 46 0;
#X connect 10 0 49 0;
#X connect 11 0 15 4;
#X connect 12 0 11 0;
#X connect 13 0 14 0;
#X connect 13 1 15 3;
#X connect 13 1 18 0;
#X connect 13 2 12 0;
#X connect 13 3 15 1;
#X connect 13 4 12 1;
#X connect 13 4 15 2;
#X connect 14 0 15 0;
#X connect 14 1 16 0;
#X connect 15 0 32 0;
#X connect 18 0 19 0;
#X connect 18 0 47 0;
#X connect 20 0 19 2;
#X connect 22 0 20 0;
#X connect 23 0 24 0;
#X connect 29 0 27 0;
#X connect 29 1 28 0;
#X connect 32 0 33 0;
#X connect 32 1 29 0;
#X connect 33 0 19 1;
#X connect 33 0 43 0;
#X connect 36 0 35 0;
#X connect 41 0 30 0;
#X connect 42 0 31 0;
#X connect 44 0 4 0;
#X connect 45 0 1 0;
#X connect 46 0 1 0;
#X connect 48 0 3 0;
#X connect 49 0 1 0;
#X connect 51 0 50 0;
