#N canvas 35 674 640 357 10;
#X msg 82 243 /user-norte \$1 \$2;
#X obj 78 289 mrpeach/udpsend;
#X obj 78 267 mrpeach/packOSC;
#X obj 78 311 tgl 15 0 empty empty empty 17 7 0 10 -262144 -1 -1 1
1;
#X msg -50 303 disconnect;
#X obj 395 271 mrpeach/udpsend;
#X obj 395 249 mrpeach/packOSC;
#X obj 395 293 tgl 15 0 empty empty empty 17 7 0 10 -262144 -1 -1 1
1;
#X msg 267 285 disconnect;
#X msg 396 209 /user-sur \$1 \$2;
#X msg 257 249 connect localhost 7111;
#X text 158 13 y norte;
#X text 64 63 x norte;
#X msg -61 267 connect 192.168.3.163 7112;
#X obj 195 268 print;
#X obj 103 133 t b f;
#X obj 174 41 vsl 15 128 3.16 5.22 0 0 empty empty empty 0 -9 0 10
-262144 -1 -1 6900 1;
#X obj 42 79 hsl 128 15 0 0.85 0 0 empty empty empty -2 -8 0 10 -262144
-1 -1 6400 1;
#X obj 124 212 print;
#X obj 410 167 t b f;
#X obj 480 67 vsl 15 128 3.16 5 0 0 empty empty empty 0 -9 0 10 -262144
-1 -1 11100 1;
#X obj 386 49 hsl 128 15 0 0.85 0 0 empty empty empty -2 -8 0 10 -262144
-1 -1 2700 1;
#X text 409 29 x sur;
#X text 505 105 y sur;
#X obj 84 180 pack f f;
#X obj 402 190 pack f f;
#X connect 0 0 2 0;
#X connect 0 0 14 0;
#X connect 1 0 3 0;
#X connect 2 0 1 0;
#X connect 4 0 1 0;
#X connect 5 0 7 0;
#X connect 6 0 5 0;
#X connect 8 0 5 0;
#X connect 9 0 6 0;
#X connect 10 0 5 0;
#X connect 13 0 1 0;
#X connect 15 0 24 0;
#X connect 15 1 24 1;
#X connect 16 0 15 0;
#X connect 17 0 24 0;
#X connect 19 0 25 0;
#X connect 19 1 25 1;
#X connect 20 0 19 0;
#X connect 21 0 25 0;
#X connect 24 0 0 0;
#X connect 24 0 18 0;
#X connect 25 0 9 0;
