#N canvas 1041 421 947 527 10;
#X msg 136 204 disconnect;
#X obj 143 266 tgl 15 0 empty empty 1=connected 20 8 0 8 -4034 -257985
-1 0 1;
#X text 196 250 see:;
#X msg 102 41 bufsize 1024;
#X obj 249 -85 tgl 15 0 empty empty empty 17 7 0 10 -262144 -1 -1 0
1;
#X obj 129 338 sel 0;
#X obj 46 214 bng 15 250 50 0 empty empty empty 17 7 0 10 -262144 -1
-1;
#X obj 619 266 mrpeach/udpreceive 9000;
#X obj 612 318 mrpeach/unpackOSC;
#X obj 616 290 mrpeach/pipelist;
#X obj 648 344 print;
#X obj 143 231 mrpeach/udpsend;
#X obj 204 121 mrpeach/packOSC;
#N canvas 567 436 796 330 mobil 0;
#X obj 236 21 metro 25;
#X obj 159 72 random 100;
#X obj 233 71 random 100;
#X obj 302 69 random 100;
#X obj 256 97 pack f f f;
#X obj 236 45 t b b b;
#X obj 86 3 metro 25;
#X obj 86 27 t b b b;
#X obj 106 79 pack f f;
#X obj 83 53 random 10;
#X obj 152 51 random 10;
#X obj 461 32 metro 25;
#X obj 384 83 random 100;
#X obj 458 82 random 100;
#X obj 527 80 random 100;
#X obj 481 108 pack f f f;
#X obj 461 56 t b b b;
#X obj 99 -57 inlet;
#X msg 268 130 /acc \$1 \$2 \$3;
#X msg 105 106 /touch \$1 \$1;
#X msg 442 131 /ori \$1 \$2 \$3;
#X obj 271 174 list append;
#X obj 266 202 list append;
#X obj 258 234 outlet;
#X connect 0 0 5 0;
#X connect 1 0 4 0;
#X connect 2 0 4 1;
#X connect 3 0 4 2;
#X connect 4 0 18 0;
#X connect 5 0 1 0;
#X connect 5 1 2 0;
#X connect 5 2 3 0;
#X connect 6 0 7 0;
#X connect 7 1 9 0;
#X connect 7 2 10 0;
#X connect 8 0 19 0;
#X connect 9 0 8 0;
#X connect 10 0 8 1;
#X connect 11 0 16 0;
#X connect 12 0 15 0;
#X connect 13 0 15 1;
#X connect 14 0 15 2;
#X connect 15 0 20 0;
#X connect 16 0 12 0;
#X connect 16 1 13 0;
#X connect 16 2 14 0;
#X connect 17 0 6 0;
#X connect 17 0 0 0;
#X connect 17 0 11 0;
#X connect 18 0 21 1;
#X connect 19 0 21 0;
#X connect 20 0 22 1;
#X connect 21 0 22 0;
#X connect 22 0 23 0;
#X restore 190 -38 pd mobil;
#N canvas 77 642 647 304 norte 1;
#X obj 117 159 pack f f;
#X obj 116 225 outlet;
#X obj 103 -3 inlet;
#X obj 110 131 / 10;
#X obj 161 130 / 10;
#X msg 117 187 /norte \$1 \$2;
#X obj 15 22 metro 25;
#X obj 15 46 t b b b;
#X obj 12 72 random 9;
#X obj 77 73 random 10;
#X obj 225 44 vsl 15 128 0 0.5 0 1 empty empty empty 0 -9 0 10 -262144
-1 -1 12700 1;
#X obj 138 51 hsl 128 15 -2 2 0 0 empty empty empty -2 -8 0 10 -262144
-1 -1 6350 0;
#X obj 274 89 t b f;
#X obj 419 131 r ys;
#X obj 417 164 sel 1;
#X floatatom 228 193 5 0 0 0 - - -;
#X connect 0 0 5 0;
#X connect 2 0 11 0;
#X connect 3 0 0 0;
#X connect 4 0 0 1;
#X connect 5 0 1 0;
#X connect 6 0 7 0;
#X connect 7 1 8 0;
#X connect 7 2 9 0;
#X connect 10 0 12 0;
#X connect 10 0 15 0;
#X connect 11 0 0 0;
#X connect 12 0 11 0;
#X connect 12 1 0 1;
#X connect 13 0 14 0;
#X restore 366 8 pd norte;
#N canvas 88 359 450 300 sur 1;
#X obj 117 159 pack f f;
#X obj 116 225 outlet;
#X obj 103 -3 inlet;
#X obj 110 131 / 10;
#X obj 161 130 / 10;
#X msg 117 186 /sur \$1 \$2;
#X obj 204 -27 vsl 15 128 0 0.5 0 1 empty empty empty 0 -9 0 10 -262144
-1 -1 0 1;
#X obj 293 64 hsl 128 15 0 1 0 0 empty empty empty -2 -8 0 10 -262144
-1 -1 0 0;
#X obj 284 99 t b f;
#X obj 246 217 s ys;
#X floatatom 285 192 5 0 0 0 - - -;
#X connect 0 0 5 0;
#X connect 2 0 6 0;
#X connect 3 0 0 0;
#X connect 4 0 0 1;
#X connect 5 0 1 0;
#X connect 6 0 9 0;
#X connect 6 0 10 0;
#X connect 6 0 8 0;
#X connect 7 0 0 0;
#X connect 8 0 7 0;
#X connect 8 1 0 1;
#X restore 425 7 pd sur;
#X msg 366 214 disconnect;
#X obj 373 276 tgl 15 0 empty empty 1=connected 20 8 0 8 -4034 -257985
-1 0 1;
#X text 426 260 see:;
#X obj 359 348 sel 0;
#X obj 276 224 bng 15 250 50 0 empty empty empty 17 7 0 10 -262144
-1 -1;
#X obj 373 241 mrpeach/udpsend;
#X msg 589 74 disconnect;
#X obj 596 136 tgl 15 0 empty empty 1=connected 20 8 0 8 -4034 -257985
-1 0 1;
#X text 649 120 see:;
#X obj 582 208 sel 0;
#X obj 499 84 bng 15 250 50 0 empty empty empty 17 7 0 10 -262144 -1
-1;
#X obj 596 101 mrpeach/udpsend;
#X msg 567 52 connect 127.0.0.1 9998;
#X obj 182 -89 tgl 15 0 empty empty empty 17 7 0 10 -262144 -1 -1 0
1;
#X msg 344 192 connect 127.0.0.1 9995;
#X msg 114 182 connect 127.0.0.1 8888;
#X obj 407 -45 tgl 15 0 empty empty empty 17 7 0 10 -262144 -1 -1 0
1;
#X obj 365 59 list append;
#X obj 374 87 list append;
#X obj 383 108 list trim;
#X obj 381 130 prepend send;
#X msg 263 79 [;
#X msg 217 80 ];
#X obj 217 56 t b a b;
#X connect 0 0 11 0;
#X connect 1 0 5 0;
#X connect 3 0 12 0;
#X connect 4 0 14 0;
#X connect 4 0 13 0;
#X connect 4 0 15 0;
#X connect 5 0 6 0;
#X connect 7 0 9 0;
#X connect 9 0 8 0;
#X connect 11 0 1 0;
#X connect 12 0 11 0;
#X connect 13 0 33 0;
#X connect 14 0 33 1;
#X connect 15 0 34 1;
#X connect 16 0 21 0;
#X connect 19 0 20 0;
#X connect 20 0 30 0;
#X connect 21 0 17 0;
#X connect 22 0 27 0;
#X connect 23 0 25 0;
#X connect 25 0 26 0;
#X connect 26 0 28 0;
#X connect 27 0 23 0;
#X connect 28 0 27 0;
#X connect 30 0 21 0;
#X connect 31 0 11 0;
#X connect 33 0 34 0;
#X connect 34 0 35 0;
#X connect 35 0 36 0;
#X connect 36 0 39 0;
#X connect 37 0 12 0;
#X connect 38 0 12 0;
#X connect 39 0 38 0;
#X connect 39 1 12 0;
#X connect 39 2 37 0;
