#N canvas 24 567 905 527 10;
#X obj 204 121 mrpeach/packOSC;
#X obj 143 231 udpsend;
#X msg 136 204 disconnect;
#X obj 143 266 tgl 15 0 empty empty 1=connected 20 8 0 8 -4034 -257985
-1 1 1;
#X text 249 223 see also:;
#X obj 231 251 packOSCstream;
#X text 196 250 see:;
#X msg 114 182 connect 127.0.0.1 7777;
#X msg 166 44 bufsize 1024;
#X msg 306 58 send /test \$1;
#X obj 281 -53 tgl 15 0 empty empty empty 17 7 0 10 -262144 -1 -1 0
1;
#X obj 129 338 sel 0;
#X obj 46 214 bng 15 250 50 0 empty empty empty 17 7 0 10 -262144 -1
-1;
#X obj 314 23 f;
#X obj 306 -21 metro 25;
#X obj 599 6 mrpeach/udpreceive 9000;
#X obj 592 58 mrpeach/unpackOSC;
#X obj 596 30 mrpeach/pipelist;
#X obj 583 96 print;
#X obj 354 23 + 1;
#X connect 0 0 1 0;
#X connect 1 0 3 0;
#X connect 2 0 1 0;
#X connect 3 0 11 0;
#X connect 7 0 1 0;
#X connect 8 0 0 0;
#X connect 9 0 0 0;
#X connect 10 0 14 0;
#X connect 11 0 12 0;
#X connect 12 0 7 0;
#X connect 13 0 9 0;
#X connect 13 0 19 0;
#X connect 14 0 13 0;
#X connect 15 0 17 0;
#X connect 16 0 18 0;
#X connect 17 0 16 0;
#X connect 19 0 13 1;
