#N canvas 0 0 450 300 10;
#X msg 73 51 0;
#X floatatom -20 43 5 0 0 0 - - -;
#X obj 115 0 + 1;
#X obj -8 -79 tgl 15 0 empty empty empty 17 7 0 10 -262144 -1 -1 0
1;
#X obj 29 -133 t b b;
#X msg 29 -108 1;
#X obj 31 -159 inlet;
#X obj 39 94 outlet;
#X obj 40 23 sel \$1;
#X obj 29 -64 metro 30;
#X msg 72 -29 0;
#X obj 51 -3 f 0;
#X connect 0 0 9 0;
#X connect 1 0 7 0;
#X connect 2 0 11 1;
#X connect 3 0 9 0;
#X connect 4 0 5 0;
#X connect 4 1 10 0;
#X connect 5 0 9 0;
#X connect 6 0 4 0;
#X connect 8 0 0 0;
#X connect 9 0 11 0;
#X connect 10 0 11 1;
#X connect 11 0 2 0;
#X connect 11 0 1 0;
#X connect 11 0 8 0;
