#N canvas 2 478 450 300 10;
#X obj 47 313 outlet;
#X text 85 278 min;
#X obj 47 278 float;
#X obj 304 17 inlet;
#X obj 47 17 inlet;
#X obj 304 37 route float bang;
#X obj 68 102 select 0;
#X msg 68 121 0;
#X msg 119 121 1;
#X obj 187 17 inlet;
#X obj 47 217 moses;
#X obj 47 153 spigot 1;
#X text 239 357 released under the GNU GPL;
#X text 22 343 (C) Copyright 2006 Hans-Christoph Steiner <hans@at.or.at>
;
#X obj 187 174 purepd/float_argument \$1 9.99e+37;
#X obj 234 147 initbang;
#X connect 2 0 0 0;
#X connect 2 0 10 1;
#X connect 3 0 5 0;
#X connect 4 0 11 0;
#X connect 5 0 6 0;
#X connect 5 1 14 0;
#X connect 6 0 7 0;
#X connect 6 1 8 0;
#X connect 7 0 11 1;
#X connect 8 0 11 1;
#X connect 9 0 14 0;
#X connect 10 0 2 0;
#X connect 11 0 10 0;
#X connect 14 0 10 1;
#X connect 14 0 2 1;
#X connect 15 0 14 0;
