#N canvas 737 293 450 300 10;
#X obj 173 186 readsf~;
#X obj 174 64 getdir;
#X msg 173 111 open \$1;
#X msg 172 164 1;
#X obj 173 138 t b a;
#X obj 161 246 dac~;
#X obj 176 40 inlet;
#X obj 174 88 makefilename %s/../../data/sounds/\$1;
#X obj 306 207 outlet;
#X obj 221 220 *~ 0.6;
#X obj 162 221 *~ 0.6;
#X obj 235 127 inlet;
#X msg 227 161 0;
#X connect 0 0 9 0;
#X connect 0 0 10 0;
#X connect 0 1 8 0;
#X connect 1 0 7 0;
#X connect 2 0 4 0;
#X connect 3 0 0 0;
#X connect 4 0 3 0;
#X connect 4 1 0 0;
#X connect 6 0 1 0;
#X connect 7 0 2 0;
#X connect 9 0 5 1;
#X connect 10 0 5 0;
#X connect 11 0 12 0;
#X connect 12 0 0 0;
