#N canvas 400 162 818 557 10;
#N canvas 654 89 933 682 playit 1;
#X obj 318 470 r \$0-gain;
#N canvas 0 22 462 312 rh_scalelog 0;
#X obj 20 155 exp;
#X obj 20 107 *;
#X obj 20 130 +;
#X obj 98 87 log;
#X obj 194 84 log;
#X obj 123 123 t b f;
#X obj 123 145 -;
#X obj 20 183 outlet;
#X obj 20 19 inlet;
#X obj 98 23 inlet;
#X obj 194 24 inlet;
#X connect 0 0 7 0;
#X connect 1 0 2 0;
#X connect 2 0 0 0;
#X connect 3 0 2 1;
#X connect 3 0 5 0;
#X connect 4 0 6 0;
#X connect 5 0 6 0;
#X connect 5 1 6 1;
#X connect 6 0 1 1;
#X connect 8 0 1 0;
#X connect 9 0 3 0;
#X connect 10 0 4 0;
#X restore 318 540 pd rh_scalelog;
#X msg 365 516 0.1;
#X msg 411 516 10;
#X obj 255 543 *~;
#X obj 68 514 *~ 2;
#X obj 68 536 -~ 1;
#X obj 25 338 expr~ $v1>0.5;
#X obj 137 271 line~;
#X msg 135 250 \$1 5;
#X obj 152 299 -~ 1;
#X obj 151 319 *~ -1;
#X obj 114 342 *~;
#X obj 27 285 *~;
#X obj 137 228 r \$0-trisquare;
#X obj 75 246 phasor~;
#X obj 363 487 r \$0-loadbang1;
#X obj 248 661 outlet~;
#X obj 115 408 *~ 0.8;
#X obj 163 542 clip~ 0 1;
#X obj 180 498 r~ \$0-VCA;
#N canvas 446 96 695 682 VCF1 1;
#X obj 97 427 cpole~;
#X obj 95 481 czero~;
#X obj 364 366 *~ 0.01;
#X obj 419 366 *~ 0.01;
#X obj 382 327 cos~;
#X obj 419 328 cos~;
#X obj 418 306 -~ 0.25;
#X obj 399 223 samplerate~;
#X obj 383 245 /~;
#X obj 94 331 inlet~;
#X obj 98 669 outlet~;
#X obj 168 393 *~;
#X obj 196 394 *~;
#X obj 222 258 *~ -0.1;
#X obj 222 279 expr~ exp($v1);
#X obj 222 300 *~ -1;
#X obj 222 322 +~ 0.9999;
#X obj 220 229 clip~ 0.001 100;
#X text 279 610 taken from 3.audio.examples/H12.peaking.pd and modified
;
#X msg 501 200 bang;
#X obj 100 604 +~;
#X obj 216 202 +~ 20;
#X obj 94 516 /~;
#X obj 125 578 *~;
#X obj 259 514 *~;
#X obj 390 178 +~ 20;
#X obj 224 82 r~ \$0-cutoffmod;
#X obj 176 9 r \$0-resonance;
#X obj 186 82 line~;
#X msg 374 54 \$1 20;
#X obj 373 76 line~;
#X obj 374 33 r \$0-cutoff;
#X obj 190 466 s~ \$0-cpole1;
#X obj 210 432 s~ \$0-cpole2;
#X obj 387 444 s~ \$0-cpole3;
#X obj 394 466 s~ \$0-cpole4;
#X obj 167 547 s~ \$0-scale1;
#X obj 258 546 s~ \$0-scale2;
#X text 281 623 by Roman (net-pd) \, and then a bit more by phuture.
;
#X msg 179 58 \$1 20;
#X obj 191 129 *~;
#X obj 382 111 *~;
#X obj 191 181 *~ 20;
#X obj 390 136 *~ 1000;
#X obj 391 157 clip~ 0 2000;
#X obj 312 481 +~ 2;
#X obj 310 458 *~ 8;
#X obj 169 496 *~ 0.5;
#X obj 168 524 +~ 1;
#X obj 98 632 /~ 20;
#X obj 180 34 * 0.9;
#X obj 225 129 +~ 0.25;
#X obj 227 109 *~ 0.4;
#X obj 193 155 clip~ 0 0.7;
#X obj 399 200 initbang;
#X connect 0 0 1 0;
#X connect 0 1 1 1;
#X connect 1 0 22 0;
#X connect 2 0 1 2;
#X connect 2 0 34 0;
#X connect 3 0 1 3;
#X connect 3 0 35 0;
#X connect 4 0 2 0;
#X connect 4 0 11 0;
#X connect 5 0 3 0;
#X connect 5 0 12 0;
#X connect 6 0 5 0;
#X connect 7 0 8 1;
#X connect 8 0 6 0;
#X connect 8 0 4 0;
#X connect 9 0 0 0;
#X connect 11 0 0 2;
#X connect 11 0 32 0;
#X connect 12 0 0 3;
#X connect 12 0 33 0;
#X connect 13 0 14 0;
#X connect 14 0 15 0;
#X connect 15 0 16 0;
#X connect 16 0 11 1;
#X connect 16 0 12 1;
#X connect 17 0 13 0;
#X connect 19 0 7 0;
#X connect 20 0 49 0;
#X connect 21 0 17 0;
#X connect 22 0 20 0;
#X connect 22 0 23 0;
#X connect 23 0 20 1;
#X connect 24 0 23 1;
#X connect 24 0 37 0;
#X connect 25 0 8 0;
#X connect 26 0 41 1;
#X connect 26 0 52 0;
#X connect 27 0 50 0;
#X connect 28 0 40 0;
#X connect 29 0 30 0;
#X connect 30 0 41 0;
#X connect 31 0 29 0;
#X connect 39 0 28 0;
#X connect 40 0 53 0;
#X connect 41 0 43 0;
#X connect 41 0 46 0;
#X connect 42 0 21 0;
#X connect 42 0 47 0;
#X connect 43 0 44 0;
#X connect 44 0 25 0;
#X connect 45 0 24 1;
#X connect 46 0 45 0;
#X connect 47 0 48 0;
#X connect 48 0 22 1;
#X connect 48 0 36 0;
#X connect 49 0 10 0;
#X connect 50 0 39 0;
#X connect 51 0 40 1;
#X connect 52 0 51 0;
#X connect 53 0 24 0;
#X connect 53 0 42 0;
#X connect 54 0 7 0;
#X restore 92 585 pd VCF1;
#N canvas 0 60 695 704 VCF2and3 0;
#X obj 208 102 cpole~;
#X obj 206 156 czero~;
#X obj 205 6 inlet~;
#X obj 211 279 +~;
#X obj 205 191 /~;
#X obj 236 253 *~;
#X obj 232 35 r~ \$0-cpole1;
#X obj 239 57 r~ \$0-cpole2;
#X obj 258 112 r~ \$0-cpole3;
#X obj 265 134 r~ \$0-cpole4;
#X obj 235 184 r~ \$0-scale1;
#X obj 257 231 r~ \$0-scale2;
#X obj 211 407 cpole~;
#X obj 209 461 czero~;
#X obj 212 649 outlet~;
#X obj 214 584 +~;
#X obj 208 496 /~;
#X obj 239 558 *~;
#X obj 235 340 r~ \$0-cpole1;
#X obj 242 362 r~ \$0-cpole2;
#X obj 261 417 r~ \$0-cpole3;
#X obj 268 439 r~ \$0-cpole4;
#X obj 238 489 r~ \$0-scale1;
#X obj 260 536 r~ \$0-scale2;
#X obj 215 621 /~ 8;
#X connect 0 0 1 0;
#X connect 0 1 1 1;
#X connect 1 0 4 0;
#X connect 2 0 0 0;
#X connect 3 0 12 0;
#X connect 4 0 3 0;
#X connect 4 0 5 0;
#X connect 5 0 3 1;
#X connect 6 0 0 2;
#X connect 7 0 0 3;
#X connect 8 0 1 2;
#X connect 9 0 1 3;
#X connect 10 0 4 1;
#X connect 11 0 5 1;
#X connect 12 0 13 0;
#X connect 12 1 13 1;
#X connect 13 0 16 0;
#X connect 15 0 24 0;
#X connect 16 0 15 0;
#X connect 16 0 17 0;
#X connect 17 0 15 1;
#X connect 18 0 12 2;
#X connect 19 0 12 3;
#X connect 20 0 13 2;
#X connect 21 0 13 3;
#X connect 22 0 16 1;
#X connect 23 0 17 1;
#X connect 24 0 14 0;
#X restore 104 609 pd VCF2and3;
#X obj 113 635 *~;
#X obj 253 588 tanh~;
#X obj 68 214 *~ -1;
#X obj 253 634 *~ 0.75;
#X obj 45 385 *~ -1;
#X obj 43 365 *~ -0.5;
#X obj 14 450 *~;
#X obj 47 413 -~ 1;
#X obj 47 434 *~ -1;
#X obj 255 563 hip~ 5;
#X obj 255 609 tanh~;
#X obj 13 469 tanh~;
#X obj 1 414 +~ 0.4;
#X obj 298 49 unpack 0 0 0 0;
#X obj 308 24 inlet;
#X obj 578 250 pack 0 0;
#X text 649 149 attack time;
#X obj 608 334 line~;
#X obj 578 276 t a b;
#X obj 779 151 r \$0-decay;
#X obj 643 249 f;
#X obj 597 532 -~ 1;
#X obj 598 554 *~ -1;
#X obj 599 595 *~;
#X obj 552 482 s~ \$0-envelope;
#X obj 597 507 r~ \$0-envelope;
#X obj 696 507 r \$0-envamount;
#X msg 656 572 \$1 20;
#X obj 656 596 line~;
#X obj 599 615 -~ 1;
#X obj 600 637 *~ -1;
#X msg 644 305 0 \$1;
#X obj 759 289 r \$0-accent;
#X obj 759 363 line~;
#X obj 551 401 -~;
#X obj 551 436 *~;
#X obj 602 662 s~ \$0-cutoffmod;
#X obj 608 357 expr~ pow($v1 \, 2);
#X obj 710 476 s~ \$0-VCA;
#X obj 722 427 *~;
#X obj 708 450 +~;
#X obj 778 213 + 50;
#X obj 698 546 + 0.1;
#X msg 760 342 \$1 20;
#X obj 589 422 +~ 1;
#X msg 621 144 10;
#X obj 642 222 delay 10;
#X obj 779 171 expr pow($f1 \, 3);
#X obj 779 194 * 8000;
#X obj 599 575 *~ 0.4;
#X obj 697 527 * 0.5;
#X obj 584 398 /~ 4;
#X obj 644 279 * 1;
#X obj 502 83;
#X text 479 33 il secondo é il delay;
#X msg 406 27 1 0.5 10 4;
#X obj 620 126 initbang;
#X connect 0 0 1 0;
#X connect 1 0 4 1;
#X connect 2 0 1 1;
#X connect 3 0 1 2;
#X connect 4 0 32 0;
#X connect 5 0 6 0;
#X connect 6 0 21 0;
#X connect 7 0 28 0;
#X connect 7 0 27 0;
#X connect 7 0 30 0;
#X connect 7 0 35 0;
#X connect 8 0 10 0;
#X connect 8 0 13 1;
#X connect 9 0 8 0;
#X connect 10 0 11 0;
#X connect 11 0 12 1;
#X connect 12 0 18 0;
#X connect 13 0 7 0;
#X connect 14 0 9 0;
#X connect 15 0 13 0;
#X connect 15 0 12 0;
#X connect 16 0 2 0;
#X connect 16 0 3 0;
#X connect 18 0 5 0;
#X connect 19 0 23 1;
#X connect 20 0 19 0;
#X connect 21 0 22 0;
#X connect 22 0 23 0;
#X connect 23 0 4 0;
#X connect 24 0 33 0;
#X connect 25 0 15 0;
#X connect 26 0 17 0;
#X connect 27 0 30 0;
#X connect 29 0 34 0;
#X connect 30 0 31 0;
#X connect 31 0 29 1;
#X connect 32 0 24 0;
#X connect 33 0 26 0;
#X connect 34 0 5 0;
#X connect 35 0 29 0;
#X connect 36 0 38 0;
#X connect 36 1 75 1;
#X connect 36 2 25 0;
#X connect 37 0 36 0;
#X connect 38 0 41 0;
#X connect 40 0 60 0;
#X connect 41 0 40 0;
#X connect 41 1 69 0;
#X connect 42 0 70 0;
#X connect 43 0 75 0;
#X connect 44 0 45 0;
#X connect 45 0 72 0;
#X connect 46 0 52 0;
#X connect 48 0 44 0;
#X connect 49 0 73 0;
#X connect 50 0 51 0;
#X connect 51 0 46 1;
#X connect 52 0 53 0;
#X connect 53 0 59 0;
#X connect 54 0 40 0;
#X connect 55 0 66 0;
#X connect 56 0 62 1;
#X connect 56 0 67 0;
#X connect 56 0 74 0;
#X connect 57 0 58 0;
#X connect 58 0 47 0;
#X connect 60 0 63 0;
#X connect 60 0 62 0;
#X connect 60 0 57 0;
#X connect 62 0 63 1;
#X connect 63 0 61 0;
#X connect 64 0 43 1;
#X connect 65 0 50 0;
#X connect 66 0 56 0;
#X connect 67 0 58 1;
#X connect 68 0 38 1;
#X connect 68 0 69 1;
#X connect 69 0 43 0;
#X connect 70 0 71 0;
#X connect 71 0 64 0;
#X connect 72 0 46 0;
#X connect 73 0 65 0;
#X connect 74 0 57 1;
#X connect 75 0 54 0;
#X connect 78 0 36 0;
#X connect 79 0 68 0;
#X restore 24 88 pd playit;
#X obj 594 300 f \$0;
#X msg 595 275 bang;
#X obj 394 235 f \$0;
#X msg 392 278 \; \$1-tuning-r steady \$2 \; \$1-cutoff-r steady \$2
\; \$1-resonance-r steady \$2 \; \$1-decay-r steady \$2 \; \$1-envamount-r
steady \$2 \; \$1-accent-r steady \$2;
#X obj 394 257 pack 0 0;
#X obj 394 215 t b f;
#X obj 397 402 r \$0-steady;
#X obj 397 431 sel 0 1;
#X obj 392 499 s \$0-steady-r;
#X obj 394 192 r \$0-steady;
#X msg 397 455 label jump;
#X msg 403 476 label steady;
#N canvas 211 84 450 337 sliders-808 0;
#X restore 590 192 pd sliders-808;
#X obj 111 126 cnv 15 135 195 empty empty empty 20 12 0 14 -245630
-66577 0;
#X obj 134 205 vsl 10 80 0 1 0 0 \$0-cutoff \$0-cutoff-r empty 0 -9
0 10 -228856 -1 -1 0 1;
#X obj 152 205 vsl 10 80 0 1 0 0 \$0-resonance \$0-resonance-r empty
0 -9 0 10 -228856 -1 -1 0 1;
#X obj 171 205 vsl 10 80 0 1 0 0 \$0-decay \$0-decay-r empty 0 -9 0
10 -228856 -1 -1 0 1;
#X obj 192 205 vsl 10 80 0 1 0 0 \$0-envamount \$0-envamount-r empty
0 -9 0 10 -228856 -1 -1 0 1;
#X obj 213 205 vsl 10 80 0 1 0 0 \$0-accent \$0-accent-r empty 0 -9
0 10 -228856 -1 -1 0 1;
#X obj 116 205 vsl 10 80 0 1 0 0 \$0-tuning \$0-tuning-r empty 0 -9
0 10 -228856 -1 -1 0 1;
#X obj 116 294 vradio 12 1 0 2 \$0-trisquare \$0-trisquare-r empty
0 -8 0 10 -228856 -1 -1 0;
#X text 130 291 tri;
#X text 129 304 square;
#X obj 231 204 vsl 10 80 0 1 0 0 \$0-gain \$0-gain-r empty 0 -9 0 10
-228856 -258113 -1 0 1;
#X text 152 166 R;
#X text 152 176 e;
#X text 152 186 s;
#X text 134 132 C;
#X text 134 143 u;
#X text 134 155 t;
#X text 134 166 o;
#X text 135 177 f;
#X text 135 188 f;
#X text 115 187 o;
#X text 117 182 |;
#X text 120 176 ~;
#X text 172 149 D;
#X text 172 158 e;
#X text 172 167 c;
#X text 172 177 a;
#X text 172 186 y;
#X text 193 168 E;
#X text 193 177 n;
#X text 193 186 v;
#X text 213 144 A;
#X text 213 152 c;
#X text 213 160 c;
#X text 213 169 e;
#X text 213 178 n;
#X text 213 187 t;
#X obj 173 307 tgl 12 0 \$0-steady \$0-steady-r steady 15 6 0 10 -262144
-262144 -1 0 1;
#X text 174 292 sliders;
#X text 231 152 G;
#X text 231 163 a;
#X text 231 174 i;
#X text 231 184 n;
#X obj 21 132 outlet~;
#X obj 599 247 t b b;
#X obj 631 279 s \$0-loadbang1;
#X msg 595 333 \; \$1-tuning-r 0.4 \; \$1-cutoff-r 0.23 \; \$1-resonance-r
0.65 \; \$1-decay-r 0.4 \; \$1-envamount-r 0.7 \; \$1-accent-r 0.8
\; \$1-gain-r 0.499 \; \$1-trisquare-r 0 \; \$1-steady-r 1;
#X obj 21 40 inlet accent/notelength/pitch/time(packed);
#X obj 333 36 inlet;
#X obj 333 66 route 0 1 2 3 4 5 6;
#X obj 551 210 bng 15 250 50 0 empty empty empty 17 7 0 10 -262144
-1 -1;
#X obj 596 223 initbang;
#X connect 0 0 57 0;
#X connect 1 0 60 0;
#X connect 2 0 1 0;
#X connect 3 0 5 0;
#X connect 5 0 4 0;
#X connect 6 0 3 0;
#X connect 6 1 5 1;
#X connect 7 0 8 0;
#X connect 8 0 11 0;
#X connect 8 1 12 0;
#X connect 10 0 6 0;
#X connect 11 0 9 0;
#X connect 12 0 9 0;
#X connect 58 0 2 0;
#X connect 58 1 59 0;
#X connect 61 0 0 0;
#X connect 62 0 63 0;
#X connect 63 0 20 0;
#X connect 63 1 15 0;
#X connect 63 2 16 0;
#X connect 63 3 17 0;
#X connect 63 4 18 0;
#X connect 63 5 19 0;
#X connect 63 6 24 0;
#X connect 65 0 58 0;
