#N canvas 377 145 1150 682 10;
#X declare -lib iemgui;
#X declare -path ../externarls/cw_binaural~/;
#X floatatom 300 237 5 0 0 0 - - -;
#X text 360 176 azimuth (degree);
#N canvas 570 136 450 300 EXTERNALS 0;
#X text 36 37 used eternals: iemlib;
#X obj 83 141 import iemgui;
#X restore 136 581 pd EXTERNALS;
#X text 213 295 left;
#X text 281 295 right;
#X text 658 560 The technique which uses ITDs is also called time-of-arrival
stereophony.;
#X text 281 211 elevation (degree);
#X obj 1151 -129 r \$0-to-GUI;
#X obj 1151 49 s \$0-from-GUI;
#N canvas 67 100 450 300 GUI_init 0;
#X obj 121 121 f \$0;
#X obj 117 91 bng 15 250 50 0 empty empty empty 17 7 0 10 -262144 -1
-1;
#X msg 124 144 \; \$1-to-GUI size 120 \; \$1-to-GUI src_font 40 \;
\$1-to-GUI sphere_col 27 \; \$1-to-GUI src_col 1 15;
#X obj 165 65 initbang;
#X connect 0 0 2 0;
#X connect 1 0 0 0;
#X connect 3 0 0 0;
#X restore 1185 -162 pd GUI_init;
#X obj 1151 -93 cube_sphere 0 60 40 1108 195567 241290 53 1;
#X obj 249 120 r \$0-from-GUI;
#X obj 249 138 unpack f f f;
#X floatatom 324 177 5 0 0 0 - - -;
#X obj 594 -50 bpm2ms;
#X msg 526 93 1;
#X msg 557 92 0;
#X obj 556 71 delay 200;
#X obj 527 44 t b b;
#X obj 529 -63 tgl 15 0 empty empty empty 17 7 0 10 -262144 -1 -1 1
1;
#X obj 525 127 s \$0-note-on-off;
#N canvas 336 498 528 280 attenuate_channels 0;
#X obj 18 29 inlet~ signal;
#X obj 178 233 outlet~;
#X obj 361 233 outlet~;
#X obj 194 127 dbtorms;
#X obj 194 105 + 100;
#X obj 194 29 inlet dB-left;
#X obj 376 29 inlet dB-right;
#X msg 194 150 \$1 50;
#X obj 194 173 line~;
#X obj 376 128 dbtorms;
#X obj 376 106 + 100;
#X msg 376 151 \$1 50;
#X obj 376 174 line~;
#X obj 177 201 *~;
#X obj 361 203 *~;
#X msg 277 79 0;
#X obj 277 59 initbang;
#X connect 0 0 13 0;
#X connect 0 0 14 0;
#X connect 3 0 7 0;
#X connect 4 0 3 0;
#X connect 5 0 4 0;
#X connect 6 0 10 0;
#X connect 7 0 8 0;
#X connect 8 0 13 1;
#X connect 9 0 11 0;
#X connect 10 0 9 0;
#X connect 11 0 12 0;
#X connect 12 0 14 1;
#X connect 13 0 1 0;
#X connect 14 0 2 0;
#X connect 15 0 4 0;
#X connect 15 0 10 0;
#X connect 16 0 15 0;
#X restore 129 68 pd attenuate_channels;
#X obj 211 38 r \$0-distance-db;
#X obj 134 16 synth;
#N canvas 1 94 450 300 note 0;
#X obj 118 -24 unpack f f;
#X obj 84 36 expr pow(2 \, (($f2-3)+(($f1-10)/12)))*440;
#X obj 153 -47 inlet;
#X msg 114 -47 1 2;
#X obj 94 109 outlet;
#X msg 93 75 1 1.5 \$1 4;
#X connect 0 0 1 0;
#X connect 0 1 1 1;
#X connect 1 0 5 0;
#X connect 2 0 0 0;
#X connect 3 0 0 0;
#X connect 5 0 4 0;
#X restore 130 -47 pd note;
#X obj 162 -150 pack f f;
#X msg 162 -130 set \$1 \$2;
#X obj 529 -42 metro 440;
#X msg 125 -73 4 6;
#X obj 119 -179 f \$2;
#X obj 157 -178 f \$3;
#X obj 534 -269 f \$1;
#X obj 530 -150 iem_receive;
#X obj 534 -244 tosymbol;
#X obj 124 -215 t b b;
#X obj 107 216 cw_binaural~;
#N canvas 484 382 450 300 db 0;
#X obj 74 130 outlet;
#X obj 54 16 initbang;
#X obj 56 47 getdir;
#X obj 140 35 bng 15 250 50 0 empty empty empty 17 7 0 10 -262144 -1
-1;
#X msg 66 78 listen_db \$1/../db/1059/COMPENSATED/WAV/IRC_1059_C;
#X connect 1 0 2 0;
#X connect 2 0 4 0;
#X connect 3 0 2 0;
#X connect 4 0 0 0;
#X restore 46 182 pd db;
#X obj 535 -294 initbang;
#X obj 272 -228 bng 15 250 50 0 empty empty empty 17 7 0 10 -262144
-1 -1;
#X obj 117 -246 initbang;
#X obj 817 194 vsl 15 80 0 1 0 0 empty empty empty 0 -9 0 10 -233017
-1 -1 0 1;
#X obj 848 317 initbang;
#X obj 821 471 s \$0-distance-db;
#X msg 821 350 load 0 1;
#X text 1333 -73 5 = si sente dall'estremo (-20);
#X text 1332 -47 4 = si sente quasi dall'estremo (-30);
#X text 1337 -22 3 = normale (-50);
#X text 1371 94 distance 0....1;
#X text 1522 95 alcance 1...5;
#X obj 819 381 myautoscale -50 2;
#X text 1338 3 2 = si smette di sentire dopo un metro (-100);
#X text 1338 32 1 = si sente solo quando sei davanti (-200);
#N canvas 59 121 450 300 scaleDistance2alcance 0;
#X obj 65 -103 sel 1 2 3 4 5;
#X obj 69 -163 initbang;
#X obj 66 -139 f \$5;
#X obj 95 57 outlet;
#X msg 140 -5 -30;
#X msg 167 23 -20;
#X msg 66 -68 -300;
#X msg 88 -47 -150;
#X msg 116 -27 -75;
#X connect 0 0 6 0;
#X connect 0 1 7 0;
#X connect 0 2 8 0;
#X connect 0 3 4 0;
#X connect 0 4 5 0;
#X connect 1 0 2 0;
#X connect 2 0 0 0;
#X connect 4 0 3 0;
#X connect 5 0 3 0;
#X connect 6 0 3 0;
#X connect 7 0 3 0;
#X connect 8 0 3 0;
#X restore 954 297 pd scaleDistance2alcance;
#X obj 971 359 t b f;
#X msg 531 -170 set r\$1.status;
#X obj 810 7 f \$1;
#X obj 806 72 iem_receive;
#X obj 810 32 tosymbol;
#X obj 811 -18 initbang;
#X msg 809 52 set r\$1.position;
#X obj 786 115 unpack f f;
#X text 879 122 azimuth (-180...180* \, ) module (0...1);
#X obj 619 206 smth;
#X obj 838 137 smth;
#X obj 527 1 spigot 1;
#X obj 587 0 iem_receive;
#X msg 593 -21 set r\$1.destroy;
#X obj 690 -1 iem_receive;
#X msg 696 -22 set r\$1.resume;
#X obj 533 -198 t a a a;
#N canvas 65 100 450 300 bpm 0;
#X obj 167 -29 f \$4;
#X obj 167 -54 initbang;
#X obj 152 -8 /;
#X obj 151 15 outlet;
#X obj 151 -79 r bpm.global;
#X obj 102 -24 print bpm;
#X connect 0 0 2 1;
#X connect 1 0 0 0;
#X connect 2 0 3 0;
#X connect 4 0 2 0;
#X connect 4 0 5 0;
#X restore 593 -72 pd bpm;
#X obj 1139 487 declare -path ../externarls/cw_binaural~/;
#X floatatom 724 170 5 0 0 0 - - -;
#X msg 920 206 load 0 5.8;
#X obj 920 231 myautoscale 1 0;
#X floatatom 942 262 5 0 0 0 - - -;
#X obj 919 184 initbang;
#X msg 997 211 1;
#X msg 1027 213 0;
#X floatatom 374 125 5 0 0 0 - - -;
#X obj 206 341 throw~ left;
#X obj 276 342 throw~ right;
#X text 1516 -111 comment;
#X text 1306 -122 5 metro 5=a 5 metros se escucha (con dos kinects)
;
#X obj 958 324 * 1;
#X obj 415 -83 print ezero;
#X obj 312 -60 s createother;
#X obj 358 -222 dollarg;
#X obj 355 -275 initbang;
#X obj 357 -195 unpack 0 0 0 0 0;
#X obj 313 -86 pack 0 0 0 0 0;
#X msg 315 -115 0;
#X obj 276 -139 del 150;
#X obj 340 -133 b;
#X obj 460 -166 sel 0 8;
#X msg 342 -111 0;
#X msg 357 -158 5;
#X obj 439 -130 t b b;
#X obj 474 -107 t b b;
#X obj 260 -186 del 150;
#X msg 299 -163 8;
#X msg 361 21 1 0.837;
#X msg 377 -3 3 0.4;
#X obj 396 -35 t b b;
#X connect 0 0 35 2;
#X connect 7 0 10 0;
#X connect 10 0 8 0;
#X connect 11 0 12 0;
#X connect 12 1 0 0;
#X connect 12 2 79 0;
#X connect 13 0 35 1;
#X connect 14 0 27 1;
#X connect 15 0 20 0;
#X connect 16 0 20 0;
#X connect 17 0 16 0;
#X connect 18 0 15 0;
#X connect 18 1 17 0;
#X connect 19 0 27 0;
#X connect 21 0 35 0;
#X connect 22 0 21 1;
#X connect 22 0 21 2;
#X connect 23 0 21 0;
#X connect 24 0 23 0;
#X connect 25 0 26 0;
#X connect 26 0 28 0;
#X connect 27 0 64 0;
#X connect 28 0 24 0;
#X connect 29 0 25 0;
#X connect 30 0 25 1;
#X connect 31 0 33 0;
#X connect 31 0 94 0;
#X connect 32 0 19 0;
#X connect 33 0 69 0;
#X connect 34 0 29 0;
#X connect 34 1 30 0;
#X connect 35 0 80 0;
#X connect 35 1 81 0;
#X connect 36 0 35 0;
#X connect 37 0 31 0;
#X connect 38 0 34 0;
#X connect 39 0 34 0;
#X connect 40 0 49 0;
#X connect 41 0 43 0;
#X connect 43 0 49 0;
#X connect 49 0 42 0;
#X connect 52 0 84 0;
#X connect 53 0 43 0;
#X connect 53 1 49 1;
#X connect 54 0 32 0;
#X connect 55 0 57 0;
#X connect 56 0 60 0;
#X connect 57 0 59 0;
#X connect 58 0 55 0;
#X connect 59 0 56 0;
#X connect 60 0 62 0;
#X connect 60 0 72 0;
#X connect 60 1 63 0;
#X connect 62 0 13 0;
#X connect 63 0 74 0;
#X connect 64 0 18 0;
#X connect 64 0 28 0;
#X connect 65 0 64 1;
#X connect 66 0 65 0;
#X connect 67 0 64 1;
#X connect 68 0 67 0;
#X connect 69 0 54 0;
#X connect 69 1 66 0;
#X connect 69 2 68 0;
#X connect 70 0 14 0;
#X connect 73 0 74 0;
#X connect 74 0 75 0;
#X connect 75 0 40 0;
#X connect 76 0 73 0;
#X connect 76 0 77 0;
#X connect 76 0 78 0;
#X connect 77 0 74 1;
#X connect 78 0 74 2;
#X connect 84 0 53 0;
#X connect 87 0 89 0;
#X connect 88 0 87 0;
#X connect 89 2 90 2;
#X connect 89 3 90 3;
#X connect 89 4 90 4;
#X connect 90 0 86 0;
#X connect 90 0 85 0;
#X connect 91 0 90 0;
#X connect 92 0 91 0;
#X connect 93 0 95 0;
#X connect 94 0 97 0;
#X connect 94 1 103 0;
#X connect 95 0 90 1;
#X connect 96 0 90 1;
#X connect 97 0 92 0;
#X connect 97 1 93 0;
#X connect 98 0 99 0;
#X connect 98 1 96 0;
#X connect 99 0 100 0;
#X connect 100 0 90 0;
#X connect 101 0 23 1;
#X connect 102 0 23 1;
#X connect 103 0 102 0;
#X connect 103 1 101 0;
