#N canvas 237 179 936 520 10;
#X declare -lib iemgui;
#X declare -path ../externarls/cw_binaural~/;
#X declare -lib iemgui;
#X declare -path ../externarls/cw_binaural~/;
#X declare -lib iemgui;
#X declare -path ../externarls/cw_binaural~/;
#X declare -lib iemgui;
#X declare -path ../externarls/cw_binaural~/;
#X declare -lib iemgui;
#X declare -path ../externarls/cw_binaural~/;
#X declare -lib iemgui;
#X declare -path ../externarls/cw_binaural~/;
#X declare -lib iemgui;
#X declare -path ../externarls/cw_binaural~/;
#X declare -path abs;
#N canvas 550 466 450 300 sndobjs 1;
#X obj 10 10 binaural1 8 4 6 0.75 4;
#X obj 10 10 binaural1 1 5 3 1 3;
#X obj 10 10 binaural1 2 7 3 2 3;
#X obj 10 10 binaural1 3 1 3 4 1;
#X obj 10 10 binaural1 0 1 1 0.5 2;
#X obj 10 10 binaural1 8 4 6 0.75 4;
#X obj 10 10 binaural1 0 0 1 0.5 2;
#X restore 590 33 pd sndobjs;
#N canvas 304 205 619 314 init 0;
#X msg 169 124 \; pd-sndobjs clear;
#X obj 168 93 loadbang;
#X msg 178 221 \; pd-sndobjs dsp 1;
#X obj 293 84 r reset;
#X obj 361 236 declare -path abs;
#X obj 422 61 loadbang;
#X obj 536 100 r reset;
#X msg 412 140 \; pd-sndPosition clear;
#X connect 1 0 0 0;
#X connect 3 0 0 0;
#X connect 5 0 7 0;
#X connect 6 0 7 0;
#X restore 589 5 pd init;
#X obj 763 248 s reset;
#X obj 755 185 bng 15 250 50 0 empty empty empty 17 7 0 10 -262144
-1 -1;
#N canvas 277 139 726 401 networkReceiver 0;
#X obj 146 86 mrpeach/unpackOSC;
#X obj 148 131 outlet;
#X obj 147 44 inlet;
#X obj 146 103 mrpeach/routeOSC /game /player;
#N canvas 841 84 450 300 (no)border 0;
#X obj 128 28 inlet;
#X obj 138 75 bng 15 250 50 0 empty empty empty 17 7 0 10 -262144 -1
-1;
#X obj 110 139 b;
#X obj 139 101 once;
#X floatatom 162 61 5 0 0 0 - - -;
#X obj 107 172 t b b;
#X obj 214 54 inlet;
#X obj 104 215 spigot 1;
#X msg 157 184 1;
#X msg 184 175 0;
#X msg 261 64 stop;
#X obj 189 104 bng 15 250 50 0 empty empty empty 17 7 0 10 -262144
-1 -1;
#X obj 140 136 playfx shock.wav;
#X obj 233 96 t b b;
#X connect 0 0 1 0;
#X connect 0 0 4 0;
#X connect 1 0 3 0;
#X connect 1 0 8 0;
#X connect 2 0 5 0;
#X connect 3 0 12 0;
#X connect 5 0 7 0;
#X connect 5 1 3 1;
#X connect 6 0 10 0;
#X connect 7 0 1 0;
#X connect 8 0 7 1;
#X connect 9 0 7 1;
#X connect 10 0 13 0;
#X connect 11 0 3 1;
#X connect 12 0 2 0;
#X connect 13 0 12 1;
#X connect 13 1 9 0;
#X connect 13 1 11 0;
#X restore 356 290 pd (no)border;
#N canvas 832 736 450 300 play 0;
#X obj 144 139 s play.global;
#X msg 144 118 1;
#X obj 144 87 inlet;
#X obj 248 132 playfx shock_reverb.wav;
#X obj 249 99 bng 15 250 50 0 empty empty empty 17 7 0 10 -262144 -1
-1;
#X connect 1 0 0 0;
#X connect 2 0 1 0;
#X connect 2 0 4 0;
#X connect 4 0 3 0;
#X restore 235 152 pd play;
#N canvas 769 649 450 300 stop 0;
#X obj 144 87 inlet;
#X obj 144 139 s stop.global;
#X msg 144 118 0;
#X obj 258 142 playfx shock_reverb.wav;
#X obj 259 109 bng 15 250 50 0 empty empty empty 17 7 0 10 -262144
-1 -1;
#X connect 0 0 2 0;
#X connect 0 0 4 0;
#X connect 2 0 1 0;
#X connect 4 0 3 0;
#X restore 291 152 pd stop;
#X obj 146 66 mrpeach/udpreceive 7777;
#X obj 234 130 mrpeach/routeOSC /in /out /border /choque;
#N canvas 426 471 450 300 choque 0;
#X obj 128 28 inlet;
#X obj 138 75 bng 15 250 50 0 empty empty empty 17 7 0 10 -262144 -1
-1;
#X obj 137 101 onebang 1;
#X obj 276 138 t b;
#X obj 139 135 playfx touchBall.wav;
#X obj 252 84 r stop-static;
#X connect 0 0 1 0;
#X connect 1 0 2 0;
#X connect 2 0 4 0;
#X connect 3 0 2 1;
#X connect 4 0 3 0;
#X connect 5 0 4 1;
#X restore 419 191 pd choque;
#X obj 429 259 r stop.global;
#X obj 425 230 r play.global;
#X msg 397 73 /player/choque;
#X obj 613 127 print;
#X connect 0 0 3 0;
#X connect 2 0 7 0;
#X connect 3 0 1 0;
#X connect 3 1 8 0;
#X connect 7 0 0 0;
#X connect 8 0 5 0;
#X connect 8 1 6 0;
#X connect 8 2 4 0;
#X connect 8 3 9 0;
#X connect 8 3 13 0;
#X connect 10 0 4 1;
#X connect 11 0 4 1;
#X connect 12 0 3 0;
#X restore 140 43 pd networkReceiver;
#N canvas 454 361 446 300 createSndObjs 0;
#X obj 157 365 s pd-sndobjs;
#N canvas 155 471 450 300 wa 0;
#X obj 155 94 inlet;
#X msg 148 123 \; pd dsp 0 \; pd dsp 1;
#X connect 0 0 1 0;
#X restore 143 89 pd wa;
#X obj 158 346 prepend obj 10 10 binaural1;
#X obj 142 34 inlet;
#N canvas 398 102 630 682 SndObjsDict 0;
#X obj 239 121 list append;
#X obj 243 235 list-fifo;
#X obj 236 80 list split 1;
#X obj 302 101 r reset;
#X obj 250 158 t l l b;
#X obj 235 55 inlet;
#X obj 117 265 list-find;
#X obj 119 -197 r play.global;
#X obj 115 317 print;
#X obj 336 233 t l;
#X msg 14 -175 find tttt;
#X obj 119 193 t a b;
#X obj 119 -94 route add find print;
#X obj 240 363 list-drip;
#N canvas 65 94 450 300 gate 0;
#X obj 243 102 inlet;
#X obj 203 226 spigot 1;
#X obj 271 226 spigot 0;
#X obj 200 269 outlet;
#X obj 269 268 outlet;
#X obj 207 158 expr $f1-1;
#X obj 299 99 inlet;
#X connect 0 0 5 0;
#X connect 0 0 2 1;
#X connect 1 0 3 0;
#X connect 2 0 4 0;
#X connect 5 0 1 1;
#X connect 6 0 1 0;
#X connect 6 0 2 0;
#X restore 197 301 pd gate;
#X obj 191 373 outlet;
#X obj 194 23 t b f;
#X msg 118 -171 print 1;
#X obj 241 502 iem_send;
#X msg 268 428 set r\$1.status;
#X obj 241 404 t b a;
#X obj 240 469 f 1;
#X msg 210 -167 print 1;
#X obj 211 -198 r stop.global;
#X obj 374 396 r play.global;
#X obj 465 397 r stop.global;
#X msg 377 422 1;
#X msg 466 424 0;
#X msg 288 -137 print 0;
#X obj 312 -168 r nextlevel.global;
#X connect 0 0 4 0;
#X connect 1 0 9 0;
#X connect 1 0 6 1;
#X connect 1 0 14 1;
#X connect 2 0 0 0;
#X connect 3 0 0 1;
#X connect 4 0 0 1;
#X connect 4 1 1 1;
#X connect 4 2 1 2;
#X connect 5 0 2 0;
#X connect 6 0 8 0;
#X connect 7 0 17 0;
#X connect 9 0 1 1;
#X connect 10 0 12 0;
#X connect 11 0 6 0;
#X connect 11 1 1 0;
#X connect 12 1 11 0;
#X connect 12 2 16 0;
#X connect 13 0 20 0;
#X connect 14 0 15 0;
#X connect 14 1 13 0;
#X connect 16 0 1 0;
#X connect 16 1 14 0;
#X connect 17 0 12 0;
#X connect 19 0 18 1;
#X connect 20 0 21 0;
#X connect 20 1 19 0;
#X connect 21 0 18 0;
#X connect 22 0 12 0;
#X connect 23 0 22 0;
#X connect 24 0 26 0;
#X connect 25 0 27 0;
#X connect 26 0 21 1;
#X connect 27 0 21 1;
#X connect 28 0 12 0;
#X connect 29 0 28 0;
#X restore 183 169 pd SndObjsDict;
#X obj 143 63 t b a a a;
#N canvas 117 230 450 300 sndControllerCreator 0;
#X obj 254 10 inlet;
#X msg 222 218 obj 10 10 sp \$1;
#X obj 212 254 s pd-sndPosition;
#X obj 252 64 list split 1;
#X connect 0 0 3 0;
#X connect 1 0 2 0;
#X connect 3 0 1 0;
#X restore 208 148 pd sndControllerCreator;
#X obj 182 190 list-drip;
#X obj 181 214 s resume.global;
#X obj 263 44 print creation;
#X connect 2 0 0 0;
#X connect 3 0 5 0;
#X connect 3 0 9 0;
#X connect 4 0 7 0;
#X connect 5 0 1 0;
#X connect 5 1 2 0;
#X connect 5 2 4 0;
#X connect 5 3 6 0;
#X connect 7 0 8 0;
#X restore 144 145 pd createSndObjs;
#N canvas 67 83 450 300 language 0;
#X obj 258 180 inlet;
#X obj 226 208 symbol;
#X obj 219 151 r language.gimme;
#X obj 228 235 s language;
#X connect 0 0 1 1;
#X connect 1 0 3 0;
#X connect 2 0 1 0;
#X restore 202 121 pd language;
#N canvas 350 228 459 328 bpm 0;
#X obj 233 103 inlet;
#X obj 228 235 s bpm.global;
#X msg 287 202 90;
#X obj 355 203 inlet;
#X obj 309 188 sel 180;
#X obj 311 224 bng 15 250 50 0 empty empty empty 17 7 0 10 -262144
-1 -1;
#X obj 327 289 playfx blanca2.wav;
#X obj 331 249 onebang 1;
#X obj 248 291 del 1000;
#X obj 395 133 bng 15 250 50 0 empty empty empty 17 7 0 10 -262144
-1 -1;
#X obj 173 256 bng 15 250 50 0 empty empty empty 17 7 0 10 -262144
-1 -1;
#X connect 0 0 1 0;
#X connect 0 0 4 0;
#X connect 2 0 1 0;
#X connect 3 0 2 0;
#X connect 4 0 5 0;
#X connect 5 0 7 0;
#X connect 5 0 8 0;
#X connect 7 0 6 0;
#X connect 8 0 10 0;
#X connect 9 0 7 1;
#X connect 10 0 7 1;
#X restore 288 192 pd bpm;
#N canvas 501 206 830 440 sndObjsPos 0;
#X obj 314 57 inlet;
#N canvas 0 162 840 497 destroy 0;
#X obj 200 41 inlet;
#X obj 191 159 iem_send;
#X msg 224 126 set r\$1.destroy;
#X obj 200 91 t b f;
#X obj 189 129 f 0;
#X obj 215 279 iem_send;
#X obj 224 211 t b f;
#X obj 213 249 f 0;
#X msg 250 232 set r\$1.status;
#X obj 200 67 t f f b;
#X obj 284 40 bng 15 250 50 0 empty empty empty 17 7 0 10 -262144 -1
-1;
#X obj 238 93 playfx destroynew.wav;
#X connect 0 0 9 0;
#X connect 2 0 1 1;
#X connect 3 0 4 0;
#X connect 3 1 2 0;
#X connect 4 0 1 0;
#X connect 6 0 7 0;
#X connect 6 1 8 0;
#X connect 7 0 5 0;
#X connect 8 0 5 1;
#X connect 9 0 3 0;
#X connect 9 1 6 0;
#X connect 9 2 11 0;
#X connect 10 0 9 0;
#X restore 324 223 pd destroy;
#N canvas 67 132 450 300 resume 0;
#X obj 132 72 inlet;
#X obj 126 173 iem_send;
#X msg 159 140 set r\$1.destroy;
#X obj 127 104 t b f;
#X obj 124 134 f 1;
#X obj 190 233 iem_send;
#X obj 191 164 t b f;
#X obj 188 194 f 1;
#X msg 223 200 set r\$1.status;
#X obj 204 88 r resume.global;
#X connect 0 0 3 0;
#X connect 2 0 1 1;
#X connect 3 0 4 0;
#X connect 3 1 2 0;
#X connect 3 1 6 0;
#X connect 4 0 1 0;
#X connect 6 0 7 0;
#X connect 6 1 8 0;
#X connect 7 0 5 0;
#X connect 8 0 5 1;
#X connect 9 0 3 0;
#X restore 402 218 pd resume;
#X obj 318 149 mrpeach/routeOSC /destroy /resume /position;
#X obj 491 181 s sndPosition.global;
#N canvas 65 466 450 300 sndPosition 0;
#X obj 10 10 sp 8;
#X obj 10 10 sp 1;
#X obj 10 10 sp 2;
#X obj 10 10 sp 3;
#X obj 10 10 sp 0;
#X obj 10 10 sp 8;
#X obj 10 10 sp 0;
#X restore 94 137 pd sndPosition;
#X obj 534 232 print;
#X connect 0 0 3 0;
#X connect 3 0 1 0;
#X connect 3 1 2 0;
#X connect 3 2 4 0;
#X restore 322 150 pd sndObjsPos;
#N canvas 57 147 450 300 play 0;
#X obj 144 139 s play.global;
#X msg 144 118 1;
#X obj 142 33 inlet;
#X obj 152 89 del 150;
#X connect 1 0 0 0;
#X connect 2 0 3 0;
#X connect 3 0 1 0;
#X restore 377 116 pd play;
#X msg 278 30 /play;
#X obj 78 35 bng 15 250 50 0 empty empty empty 17 7 0 10 -262144 -1
-1;
#N canvas 67 117 450 300 stop 0;
#X obj 144 87 inlet;
#X obj 144 139 s stop.global;
#X msg 144 118 0;
#X connect 0 0 2 0;
#X connect 2 0 1 0;
#X restore 433 114 pd stop;
#X msg 328 29 /stop;
#X msg -5 25 1 5 3 1 3;
#X msg 5 76 2 7 3 2 3;
#X msg 4 104 3 1 3 4 1;
#X obj 141 77 mrpeach/routeOSC /create /language /bpm /sndobj /play
/stop;
#X obj 485 203 s reset;
#X obj 478 180 bng 15 250 50 0 empty empty empty 17 7 0 10 -262144
-1 -1;
#N canvas 814 398 541 373 over 0;
#X obj 128 28 inlet;
#X obj 111 307 s stop.global;
#X msg 111 286 0;
#X obj 111 192 t b b;
#X msg 179 280 1;
#X obj 270 205 bng 15 250 50 0 empty empty empty 17 7 0 10 -262144
-1 -1;
#X obj 242 269 b;
#X obj 329 226 once;
#X obj 271 265 playfx over.wav;
#X obj 392 181 inlet;
#X obj 273 109 r stop-static;
#X connect 0 0 3 0;
#X connect 2 0 1 0;
#X connect 3 0 2 0;
#X connect 3 1 4 0;
#X connect 3 1 5 0;
#X connect 5 0 8 0;
#X connect 6 0 7 1;
#X connect 7 0 8 0;
#X connect 8 0 6 0;
#X connect 9 0 8 1;
#X connect 10 0 8 1;
#X restore 567 222 pd over;
#X msg 425 3 /sndobj/resume 1;
#X msg 258 277 /nextlevel;
#X msg 472 30 /sndobj/destroy 2;
#N canvas 200 248 603 518 win 0;
#X obj 157 189 s stop.global;
#X msg 157 168 0;
#X obj 157 46 inlet;
#X obj 157 74 t b b;
#X obj 317 134 bng 15 250 50 0 empty empty empty 17 7 0 10 -262144
-1 -1;
#X obj 411 156 bng 15 250 50 0 empty empty empty 17 7 0 10 -262144
-1 -1;
#X msg 225 162 1;
#X obj 405 59 inlet;
#X obj 318 194 playfx win.wav;
#X obj 476 84 r stop-static;
#X connect 1 0 0 0;
#X connect 2 0 3 0;
#X connect 3 0 1 0;
#X connect 3 1 4 0;
#X connect 3 1 6 0;
#X connect 4 0 8 0;
#X connect 5 0 8 1;
#X connect 7 0 5 0;
#X connect 9 0 5 0;
#X restore 593 194 pd win;
#N canvas 14 188 855 553 next 0;
#X obj 539 20 inlet;
#X obj 112 100 s nextlevel.global;
#X obj 248 183 f;
#X obj 279 184 + 1;
#X obj 256 41 bng 15 250 50 0 empty empty empty 17 7 0 10 -262144 -1
-1;
#X obj 246 217 sel 10;
#X obj 249 141 metro 1000;
#X msg 290 276 1;
#X obj 568 369 mrpeach/udpsend;
#X obj 693 309 loadbang;
#X obj 569 402 sel 0;
#X obj 567 425 bng 15 250 50 0 empty empty empty 17 7 0 10 -262144
-1 -1;
#X obj 565 346 mrpeach/packOSC;
#X msg 192 272 0;
#X obj 189 49 t b b;
#X msg 213 70 1;
#X floatatom 382 220 5 0 0 0 - - -;
#X obj 247 243 t b b b b;
#X obj 145 298 s stop.global;
#X obj 693 141 bng 15 250 50 0 empty empty empty 17 7 0 10 -262144
-1 -1;
#X obj 575 197 playfx counter.wav;
#X obj 620 447 tgl 15 0 empty empty empty 17 7 0 10 -262144 -1 -1 0
1;
#X msg 711 417 disconnect;
#X msg 545 317 send /game/start 1;
#X obj 583 160 outlet;
#X obj 509 134 bng 15 250 50 0 empty empty empty 17 7 0 10 -262144
-1 -1;
#X floatatom 196 476 5 0 0 0 - - -;
#X obj 506 216 bng 15 250 50 0 empty empty empty 17 7 0 10 -262144
-1 -1;
#X obj 569 76 t b b b;
#X obj 585 468 bng 15 250 50 0 empty empty empty 17 7 0 10 -262144
-1 -1;
#X msg 540 262 1;
#X obj 751 190 inlet;
#X obj 448 321 tgl 15 0 empty empty empty 17 7 0 10 -262144 -1 -1 0
1;
#X obj 501 282 tgl 15 0 empty empty empty 17 7 0 10 -262144 -1 -1 0
1;
#X obj 439 359 print;
#X msg 575 257 0;
#X obj 543 285 metro 50;
#X msg 676 343 connect 127.0.0.1 8889;
#X obj 573 46 sel 1;
#X obj 647 74 bng 15 250 50 0 empty empty empty 17 7 0 10 -262144 -1
-1;
#X obj 645 93 t b b b;
#X obj 654 121 playfx completado.wav;
#X obj 659 153 bng 15 250 50 0 empty empty empty 17 7 0 10 -262144
-1 -1;
#X floatatom 654 31 5 0 0 0 - - -;
#X floatatom 493 94 5 0 0 0 - - -;
#X connect 0 0 38 0;
#X connect 0 0 44 0;
#X connect 2 0 3 0;
#X connect 2 0 5 0;
#X connect 2 0 16 0;
#X connect 3 0 2 1;
#X connect 5 0 17 0;
#X connect 6 0 2 0;
#X connect 7 0 2 1;
#X connect 8 0 10 0;
#X connect 8 0 21 0;
#X connect 10 0 11 0;
#X connect 10 1 29 0;
#X connect 11 0 37 0;
#X connect 12 0 8 0;
#X connect 13 0 6 0;
#X connect 13 0 18 0;
#X connect 14 0 1 0;
#X connect 14 1 15 0;
#X connect 15 0 6 0;
#X connect 17 0 13 0;
#X connect 17 2 7 0;
#X connect 19 0 20 1;
#X connect 19 0 41 1;
#X connect 20 0 27 0;
#X connect 22 0 8 0;
#X connect 23 0 12 0;
#X connect 25 0 20 0;
#X connect 27 0 30 0;
#X connect 28 0 20 0;
#X connect 28 1 24 0;
#X connect 28 2 37 0;
#X connect 30 0 36 0;
#X connect 31 0 35 0;
#X connect 31 0 19 0;
#X connect 35 0 36 0;
#X connect 36 0 23 0;
#X connect 37 0 8 0;
#X connect 38 0 28 0;
#X connect 38 1 39 0;
#X connect 39 0 40 0;
#X connect 40 0 41 0;
#X connect 40 1 24 0;
#X connect 40 2 37 0;
#X connect 41 0 42 0;
#X connect 42 0 20 0;
#X connect 43 0 38 0;
#X restore 667 222 pd next;
#N canvas 67 101 869 437 audioMaster 0;
#X obj -167 120 hsl 128 15 0 9 0 0 empty empty empty -2 -8 0 10 -262144
-1 -1 0 1;
#X obj -327 202 *~ 0.6;
#X obj -386 203 *~ 0.6;
#X obj -386 160 catch~ left;
#X obj -301 160 catch~ right;
#X obj -380 247 dac~;
#X msg -165 91 0.6;
#X obj 125 353 oggwrite~;
#X obj 148 222 f;
#X obj 178 223 + 1;
#X obj 149 191 bng 15 250 50 0 empty empty empty 17 7 0 10 -262144
-1 -1;
#X obj 146 279 t b a;
#X msg 119 316 start;
#X floatatom 125 384 5 0 0 0 - - -;
#X floatatom 167 384 5 0 0 0 - - -;
#X obj 152 131 route bang stop;
#X msg 196 180 stop;
#X msg 165 305 open \$1;
#X obj 152 106 inlet;
#X obj 144 255 makefilename /home/audiogames/partida%d.ogg;
#X connect 0 0 1 1;
#X connect 0 0 2 1;
#X connect 1 0 5 1;
#X connect 1 0 7 1;
#X connect 2 0 5 0;
#X connect 2 0 7 0;
#X connect 3 0 2 0;
#X connect 4 0 1 0;
#X connect 6 0 0 0;
#X connect 7 0 13 0;
#X connect 7 1 14 0;
#X connect 8 0 9 0;
#X connect 8 0 19 0;
#X connect 9 0 8 1;
#X connect 10 0 8 0;
#X connect 11 0 12 0;
#X connect 11 1 17 0;
#X connect 12 0 7 0;
#X connect 15 0 10 0;
#X connect 15 1 16 0;
#X connect 16 0 7 0;
#X connect 17 0 7 0;
#X connect 18 0 15 0;
#X connect 19 0 11 0;
#X restore 421 326 pd audioMaster;
#X msg 412 269 stop;
#X obj 460 273 bng 15 250 50 0 empty empty empty 17 7 0 10 -262144
-1 -1;
#X text 489 273 record;
#X msg 100 469 \; pd dsp 1;
#X obj 109 379 loadbang;
#X obj 154 415 del 600;
#X msg 52 420 \; pd dsp 0;
#N canvas 664 211 499 423 game 0;
#X obj 147 179 s stop.global;
#X msg 147 158 0;
#X obj 147 36 inlet;
#X obj 147 64 t b b;
#X obj 307 124 bng 15 250 50 0 empty empty empty 17 7 0 10 -262144
-1 -1;
#X obj 309 206 b;
#X obj 308 184 playfx entra.wav;
#X obj 256 268 spigot 1;
#X obj 401 146 bng 15 250 50 0 empty empty empty 17 7 0 10 -262144
-1 -1;
#X msg 215 152 1;
#X obj 105 -24 inlet;
#X connect 1 0 0 0;
#X connect 2 0 3 0;
#X connect 3 0 1 0;
#X connect 3 1 4 0;
#X connect 3 1 9 0;
#X connect 4 0 6 0;
#X connect 5 0 7 0;
#X connect 6 0 5 0;
#X connect 7 0 4 0;
#X connect 8 0 6 1;
#X connect 9 0 7 1;
#X connect 10 0 8 0;
#X restore 671 290 pd game;
#X obj 484 149 mrpeach/routeOSC /init /over /win /nextlevel /game /end
;
#X obj 630 302 bng 15 250 50 0 empty empty empty 17 7 0 10 -262144
-1 -1;
#X obj 648 340 s stop-static;
#X msg 27 166 0 1 1 0.5 2;
#X obj 30 201 r createother;
#X obj 116 231 r reset;
#X obj 36 264 spigot 1;
#X obj 32 224 t f a;
#X msg 116 261 1;
#X obj 139 104 t a b;
#X msg 166 296 1;
#X obj 166 239 b;
#X obj 266 -10 r stop-static;
#X obj 119 335 bng 15 250 50 0 empty empty empty 17 7 0 10 -262144
-1 -1;
#X obj 157 267 del 350;
#X msg 79 240 0;
#X msg 6 130 8 4 6 0.75 4;
#X msg 380 31 /bpm 90;
#X connect 3 0 2 0;
#X connect 3 0 25 1;
#X connect 3 0 24 1;
#X connect 3 0 34 0;
#X connect 3 0 20 1;
#X connect 4 0 17 0;
#X connect 10 0 17 0;
#X connect 11 0 14 0;
#X connect 11 0 15 0;
#X connect 11 0 16 0;
#X connect 11 0 38 0;
#X connect 11 0 51 0;
#X connect 13 0 17 0;
#X connect 14 0 5 0;
#X connect 15 0 5 0;
#X connect 16 0 5 0;
#X connect 17 0 44 0;
#X connect 17 1 6 0;
#X connect 17 2 7 0;
#X connect 17 3 8 0;
#X connect 17 4 9 0;
#X connect 17 5 12 0;
#X connect 17 6 35 0;
#X connect 19 0 18 0;
#X connect 19 0 25 1;
#X connect 21 0 17 0;
#X connect 22 0 17 0;
#X connect 23 0 17 0;
#X connect 25 0 34 0;
#X connect 27 0 26 0;
#X connect 28 0 26 0;
#X connect 31 0 32 0;
#X connect 31 0 33 0;
#X connect 32 0 30 0;
#X connect 35 0 19 0;
#X connect 35 1 20 0;
#X connect 35 2 24 0;
#X connect 35 3 25 0;
#X connect 35 4 34 1;
#X connect 35 4 36 0;
#X connect 35 5 3 0;
#X connect 36 0 37 0;
#X connect 38 0 5 0;
#X connect 39 0 42 0;
#X connect 40 0 43 0;
#X connect 41 0 5 0;
#X connect 42 0 50 0;
#X connect 42 1 41 0;
#X connect 42 1 46 0;
#X connect 43 0 41 1;
#X connect 44 0 5 0;
#X connect 44 1 7 1;
#X connect 45 0 41 1;
#X connect 46 0 49 0;
#X connect 47 0 13 0;
#X connect 49 0 45 0;
#X connect 49 0 48 0;
#X connect 50 0 41 1;
#X connect 51 0 5 0;
#X connect 52 0 17 0;
