#N canvas 259 174 1104 630 10;
#X obj -249 553 nbx 5 100 -1e+37 1e+37 0 0 empty \$0-z empty 0 -8 0
100 -262144 -1 -1 6.76383 256;
#X obj -737 567 nbx 5 100 -1e+37 1e+37 0 0 empty \$0-x empty 0 -8 0
100 -262144 -1 -1 0.848437 256;
#X obj -662 154 loadbang;
#X msg -656 188 15;
#X obj -657 237 vsl 15 128 0 15 0 0 \$0-distance-max empty MAX 0 -9
0 10 -262144 -1 -1 5400 1;
#X obj -562 239 vsl 15 128 0 15 0 0 \$0-distance-min empty MIN 0 -9
0 10 -262144 -1 -1 0 1;
#X obj -835 300 hsl 128 15 -10 10 0 0 \$0-trim-left empty Left -2 -8
0 10 -262144 -1 -1 0 1;
#X obj -826 325 nbx 5 14 -1e+37 1e+37 0 0 empty empty empty 0 -8 0
10 -262144 -1 -1 -10 256;
#X obj -495 305 hsl 128 15 -4 4 0 0 \$0-trim-right empty Right -2 -8
0 10 -262144 -1 -1 12700 1;
#X obj -834 243 loadbang;
#X msg -838 266 -10;
#X obj -496 233 loadbang;
#X msg -500 256 4;
#X obj -649 105 hsl 128 15 0 10 0 0 \$0-trim-top empty Top -2 -8 0
10 -262144 -1 -1 12700 1;
#X obj -651 126 nbx 5 14 -1e+37 1e+37 0 0 empty empty empty 0 -8 0
10 -262144 -1 -1 10 256;
#X obj -648 48 loadbang;
#X msg -652 71 10;
#X obj -685 475 hsl 128 15 0 10 0 0 \$0-trim-bottom empty Bottom -2
-8 0 10 -262144 -1 -1 0 1;
#X obj -687 496 nbx 5 14 -1e+37 1e+37 0 0 empty empty empty 0 -8 0
10 -262144 -1 -1 0 256;
#X obj -684 418 loadbang;
#N canvas 445 174 918 528 main 1;
#N canvas 760 466 450 300 freenect 0;
#X obj -359 116 gemhead;
#N canvas 482 284 827 305 properties 0;
#X obj 95 235 outlet;
#X obj 3 -6 cnv 15 140 220 empty empty empty 20 12 0 14 -204800 -66577
0;
#X msg 8 178 led \$1;
#X obj 8 59 vradio 15 1 0 6 empty empty empty 0 -8 0 10 -262144 -1
-1 0;
#X floatatom 8 155 5 0 0 0 - - -;
#X msg 85 178 angle \$1;
#X obj 85 23 vsl 15 128 -30 30 0 0 empty empty empty 0 -9 0 10 -262144
-1 -1 6350 1;
#X floatatom 85 159 5 0 0 0 - - -;
#X msg 85 -2 0;
#X text 24 73 GREEN;
#X text 25 57 OFF;
#X text 24 89 RED;
#X text 24 104 YELLOW;
#X text 24 119 BLINK_GR;
#X text 24 133 BLINK_R_Y;
#X obj 149 84 cnv 15 320 120 empty empty empty 20 12 0 14 -4034 -66577
0;
#X obj 160 121 vradio 15 1 0 2 empty empty empty 0 -8 0 10 -262144
-1 -1 0;
#X floatatom 160 156 5 0 0 0 - - -;
#X obj 225 122 vradio 15 1 0 2 empty empty empty 0 -8 0 10 -262144
-1 -1 0;
#X floatatom 225 157 5 0 0 0 - - -;
#X msg 287 179 audio \$1;
#X obj 287 123 vradio 15 1 0 2 empty empty empty 0 -8 0 10 -262144
-1 -1 0;
#X floatatom 287 158 5 0 0 0 - - -;
#X msg 160 177 rgb \$1;
#X msg 225 178 depth \$1;
#X text 152 84 activate/deactivate streams;
#X text 306 120 OFF;
#X text 306 134 ON;
#X text 154 98 save cpu power by just activating necessary streams!
;
#X obj 477 85 cnv 15 315 120 empty empty empty 20 12 0 14 -232576 -66577
0;
#X obj 480 94 vradio 15 1 0 4 empty empty empty 0 -8 0 10 -262144 -1
-1 2;
#X floatatom 480 159 5 0 0 0 - - -;
#X msg 480 179 depth_output \$1;
#X text 500 92 Color -> best for visual representation;
#X text 630 148 b = 0 \, a = 0;
#X text 303 -23 properties for pix_freenect;
#X text 498 62 DEPTH OUTPUT;
#X text 171 63 STREAMS;
#X text 26 -25 LED \, ANGLE;
#X text 629 135 r->3 msbits \, g ->8 lsbits;
#X text 501 108 Grayscale -> easy to handle;
#X text 502 138 Raw YUV (2 bytes) |;
#X text 502 123 Raw RGBA -> 11 bit output in r&g channel;
#N canvas 451 438 894 267 libfreenect_modes 0;
#X msg 548 182 video_mode \$1;
#X obj 548 51 vradio 15 1 0 7 empty empty empty 0 -8 0 10 -262144 -1
-1 0;
#X floatatom 548 161 5 0 0 0 - - -;
#X msg 150 178 depth_mode \$1;
#X obj 150 50 vradio 15 1 0 6 empty empty empty 0 -8 0 10 -262144 -1
-1 5;
#X floatatom 150 160 5 0 0 0 - - -;
#X text 8 2 LIBFREENECT MODES:;
#X text 569 80 IR MODE;
#X text 569 51 RGB (use this);
#X obj 150 213 outlet;
#X text 125 2 this is just for experimenting...;
#X text 434 50 FREENECT_VIDEO_RGB;
#X text 422 65 FREENECT_VIDEO_BAYER;
#X text 404 79 FREENECT_VIDEO_IR_10BIT;
#X text 364 94 FREENECT_VIDEO_IR_10BIT_PACKED;
#X text 411 111 FREENECT_VIDEO_YUV_RGB;
#X text 411 125 FREENECT_VIDEO_YUV_RAW;
#X text 423 140 FREENECT_VIDEO_DUMMY;
#X text 24 48 FREENECT_DEPTH_11BIT;
#X text 24 63 FREENECT_DEPTH_10BIT;
#X text -19 78 FREENECT_DEPTH_11BIT_PACKED;
#X text -19 94 FREENECT_DEPTH_10BIT_PACKED;
#X text 42 123 FREENECT_DEPTH_MM;
#X text 67 27 DEPTH MODES;
#X text 530 26 RGB MODES;
#X text 149 27 !!also check depth_output!!;
#X obj 668 114 vradio 15 1 0 3 empty empty empty 0 -8 0 10 -262144
-1 -1 0;
#X floatatom 668 164 5 0 0 0 - - -;
#X msg 668 185 resolution \$1;
#X text 688 128 MEDIUM (default);
#X text 665 91 RGB RESOLUTION;
#X text 688 143 HIGH (restart rgb stream!);
#X text -6 109 FREENECT_DEPTH_REGISTERED;
#X text 688 113 LOW (not displaying correctly);
#X text 172 108 aligned to rgb \, 16 bit [mm] output;
#X text 171 122 unaligned \, 16 bit [mm] output;
#X text 170 47 raw 11 bit depth output;
#X msg 83 166 5;
#X obj 34 188 loadbang;
#X connect 0 0 9 0;
#X connect 1 0 2 0;
#X connect 2 0 0 0;
#X connect 3 0 9 0;
#X connect 4 0 5 0;
#X connect 5 0 3 0;
#X connect 26 0 27 0;
#X connect 27 0 28 0;
#X connect 28 0 9 0;
#X connect 37 0 4 0;
#X connect 38 0 37 0;
#X restore 323 220 pd libfreenect_modes;
#X text 459 220 <- change between raw or mm output \, aligned depth
output \, resolution \, ...;
#X obj 152 5 loadbang;
#X msg 461 31 2;
#X obj 419 10 loadbang;
#X connect 2 0 0 0;
#X connect 3 0 4 0;
#X connect 4 0 2 0;
#X connect 5 0 0 0;
#X connect 6 0 7 0;
#X connect 7 0 5 0;
#X connect 8 0 6 0;
#X connect 16 0 17 0;
#X connect 17 0 23 0;
#X connect 18 0 19 0;
#X connect 19 0 24 0;
#X connect 20 0 0 0;
#X connect 21 0 22 0;
#X connect 22 0 20 0;
#X connect 23 0 0 0;
#X connect 24 0 0 0;
#X connect 30 0 31 0;
#X connect 31 0 32 0;
#X connect 32 0 0 0;
#X connect 43 0 0 0;
#X connect 45 0 8 0;
#X connect 45 0 46 0;
#X connect 46 0 30 0;
#X connect 47 0 46 0;
#X restore -451 104 pd properties;
#X obj -242 104 gemhead;
#X text -523 150 output acceleration;
#X msg -524 131 accel;
#X obj -524 83 tgl 15 0 empty empty accel 17 7 0 10 -262144 -1 -1 0
1;
#X obj -524 105 metro 500;
#X text -360 97 gemhead for rgb;
#X text -245 84 and for depth;
#X msg -371 75 bang;
#N canvas 1 95 529 247 audio 0;
#X obj 58 -8 list length;
#X obj 58 12 print rcvd_samples;
#X obj 58 -60 inlet;
#X obj 108 -60 inlet;
#X obj 158 -60 inlet;
#X obj 208 -60 inlet;
#X text 403 -99 to be implemented:;
#X text 32 99 1 on the left side \, 3 on the right side under the grill
;
#X text 29 85 microphones are facing downwards;
#X text 404 -83 resampling in pd;
#X text 254 -20 1: left side mic;
#X text 256 -4 2: right side 1st;
#X text 264 26 4: right side 3rd (right outside);
#X text 259 11 3: right side 2nd;
#X text 49 -105 bang to first inlet outputs a list of samples;
#X text 49 -90 received since last |bang (;
#X text 256 -60 list (float) (float) (float) .......;
#X text 47 114 kinect is running at about 16kHz samplerate;
#X connect 0 0 1 0;
#X connect 2 0 0 0;
#X restore -315 180 pd audio;
#X text -332 72 audio output;
#N canvas 176 428 455 231 acceleration 0;
#X obj 71 34 inlet;
#X obj 71 56 route accel tilt_angle;
#X floatatom 135 87 5 0 0 0 - - -;
#X obj 71 131 unpack 0 0 0;
#X floatatom 51 154 8 0 0 0 - - -;
#X floatatom 105 154 8 0 0 0 - - -;
#X floatatom 160 154 8 0 0 0 - - -;
#X text 68 3 accel message to first inlet outputs accelerator data
at last outlet;
#X text 218 152 accelerometer data for X \, Y \, Z -axis;
#X text 172 87 Raw tilt motor angle encoder information;
#X obj 17 183 expr sqrt($f1*$f1+$f2*$f2+$f3*$f3);
#X floatatom 17 203 5 0 0 0 - - -;
#X text 53 202 gravity acceleration should be 9.81;
#X connect 0 0 1 0;
#X connect 1 0 3 0;
#X connect 1 0 10 0;
#X connect 1 1 2 0;
#X connect 3 0 4 0;
#X connect 3 1 5 0;
#X connect 3 2 6 0;
#X connect 10 0 11 0;
#X restore -242 178 pd acceleration;
#N canvas 0 22 364 224 init_trick 0;
#X obj 131 39 route 1;
#X obj 131 9 route gem_state;
#X obj 131 69 delay 500;
#X msg 131 103 accel;
#X obj 91 133 outlet;
#X obj 91 -15 inlet;
#X text 22 179 trigger the accelerometer output to start streaming
;
#X text 24 162 a little trick to start the streams;
#X connect 0 0 2 0;
#X connect 1 0 0 0;
#X connect 2 0 3 0;
#X connect 3 0 4 0;
#X connect 5 0 1 0;
#X connect 5 0 4 0;
#X restore -359 136 pd init_trick;
#X obj -359 157 pix_freenect 0 1 1 0;
#X msg -440 177 info;
#X obj -383 210 outlet;
#X obj -423 228 outlet;
#X connect 0 0 13 0;
#X connect 1 0 14 0;
#X connect 2 0 14 1;
#X connect 4 0 14 0;
#X connect 5 0 6 0;
#X connect 6 0 4 0;
#X connect 9 0 14 0;
#X connect 13 0 14 0;
#X connect 14 0 17 0;
#X connect 14 1 16 0;
#X connect 14 2 10 0;
#X connect 14 3 10 1;
#X connect 14 4 10 2;
#X connect 14 5 10 3;
#X connect 14 6 12 0;
#X connect 15 0 14 0;
#X restore -1247 76 pd freenect;
#X obj -952 49 gemwin;
#X msg -952 24 dimen 640 480 \, create \, 1;
#X obj -1183 181 pix_threshold_depth;
#X floatatom -824 113 5 0 0 0 max_value(m) - -;
#X floatatom -957 117 5 0 0 0 min_value(m) - -;
#X obj -824 138 * 1000;
#X obj -957 135 * 1000;
#N canvas 523 283 464 262 trim 0;
#X obj 129 220 outlet;
#X msg 54 175 trim \$1;
#X obj 54 155 tgl 15 0 empty empty ON/OFF 17 7 0 10 -262144 -1 -1 1
1;
#X obj 129 115 nbx 5 14 -1e+37 1e+37 0 0 empty empty empty 0 -8 0 10
-262144 -1 -1 -10 256;
#X obj 129 137 * 1000;
#X obj 199 115 nbx 5 14 -1e+37 1e+37 0 0 empty empty empty 0 -8 0 10
-262144 -1 -1 4 256;
#X obj 199 137 * 1000;
#X obj 279 115 nbx 5 14 -1e+37 1e+37 0 0 empty empty empty 0 -8 0 10
-262144 -1 -1 0 256;
#X msg 279 161 y_min \$1;
#X obj 279 137 * 1000;
#X obj 349 115 nbx 5 14 -1e+37 1e+37 0 0 empty empty empty 0 -8 0 10
-262144 -1 -1 10 256;
#X obj 349 137 * 1000;
#X msg 349 161 y_max \$1;
#X msg 129 161 x_min \$1;
#X msg 199 161 x_max \$1;
#X text 66 112 in meters;
#X text 130 97 left;
#X text 199 97 right;
#X text 282 93 bottom;
#X text 351 96 top;
#X obj 40 135 loadbang;
#X obj 120 13 r \$0-trim-left;
#X obj 203 41 r \$0-trim-right;
#X obj 284 16 r \$0-trim-bottom;
#X obj 348 53 r \$0-trim-top;
#X connect 1 0 0 0;
#X connect 2 0 1 0;
#X connect 3 0 4 0;
#X connect 4 0 13 0;
#X connect 5 0 6 0;
#X connect 6 0 14 0;
#X connect 7 0 9 0;
#X connect 8 0 0 0;
#X connect 9 0 8 0;
#X connect 10 0 11 0;
#X connect 11 0 12 0;
#X connect 12 0 0 0;
#X connect 13 0 0 0;
#X connect 14 0 0 0;
#X connect 20 0 2 0;
#X connect 21 0 3 0;
#X connect 22 0 5 0;
#X connect 23 0 7 0;
#X connect 24 0 10 0;
#X restore -1172 98 pd trim;
#X text -885 102 distance;
#X obj -1069 647 / 1000;
#X obj -952 -3 loadbang;
#X obj -1119 469 abs;
#X obj -1120 449 expr $f1 + $f2 -480;
#N canvas 1 144 450 300 contournTracker 0;
#X floatatom 150 10 5 0 0 0 - - -;
#X obj 33 42 pix_opencv_contours_boundingrect;
#X obj 201 -6 loadbang;
#X obj 134 116 unpack f f f f f;
#X obj 125 148 sel -1;
#X obj 169 167 sel -1;
#X msg 211 27 5000;
#X obj 241 171 sel 0;
#X obj 222 208 sel 0;
#X obj 0 183 outlet pix;
#X obj 110 245 outlet x;
#X obj 197 252 outlet y;
#X obj 250 245 outlet dimX;
#X obj 292 227 outlet dimY;
#X obj 29 -27 inlet pix;
#X floatatom 104 191 5 0 0 0 - - -;
#X connect 0 0 1 1;
#X connect 1 0 9 0;
#X connect 1 1 3 0;
#X connect 2 0 6 0;
#X connect 3 1 4 0;
#X connect 3 2 5 0;
#X connect 3 3 8 0;
#X connect 3 4 7 0;
#X connect 4 0 15 0;
#X connect 4 1 10 0;
#X connect 5 1 11 0;
#X connect 6 0 0 0;
#X connect 7 1 13 0;
#X connect 8 1 12 0;
#X connect 14 0 1 0;
#X restore -1177 245 pd contournTracker;
#X obj -1167 306 t a a;
#N canvas 647 351 450 300 cropper 0;
#X obj -92 -218 separator;
#X obj 111 -101 pix_crop;
#X obj 262 -219 inlet abs;
#X obj -105 -273 inlet pix;
#X obj 110 -65 outlet;
#X obj 179 -250 inlet x;
#X obj -20 -239 inlet width;
#X obj 71 -245 inlet height;
#X connect 0 0 1 0;
#X connect 1 0 4 0;
#X connect 2 0 1 4;
#X connect 3 0 0 0;
#X connect 5 0 1 3;
#X connect 6 0 1 1;
#X connect 7 0 1 2;
#X restore -1170 494 pd cropper;
#N canvas 1 124 450 300 cropScreen 0;
#X obj 121 98 pix_texture;
#X obj 124 165 colorRGB 0 1 1;
#X obj 123 41 inlet;
#X obj 122 129 translateXYZ 2 -2 0;
#X obj 117 197 rectangle 2 1.5;
#X obj 125 64 spigot 0;
#X obj 183 42 inlet;
#X connect 0 0 3 0;
#X connect 1 0 4 0;
#X connect 2 0 5 0;
#X connect 3 0 1 0;
#X connect 5 0 0 0;
#X connect 6 0 5 1;
#X restore -1165 617 pd cropScreen;
#X text -1058 178 r;
#N canvas 179 284 450 300 calculateDIstance 0;
#X obj 96 165 expr $f1 * 65536 + $f2 * 256 * -0.0030711 + 3.33095;
#X obj 94 135 inlet;
#X obj 392 132 inlet;
#X obj 96 194 outlet;
#X connect 0 0 3 0;
#X connect 1 0 0 0;
#X connect 2 0 0 1;
#X restore -1011 613 pd calculateDIstance;
#N canvas 1 89 450 300 scaling 0;
#X obj 117 125 inlet;
#X obj 148 232 outlet;
#X obj 149 184 autoscale 0 1;
#X msg 160 153 load 0 640;
#X obj 164 124 loadbang;
#X connect 0 0 2 0;
#X connect 2 0 1 0;
#X connect 3 0 2 0;
#X connect 4 0 3 0;
#X restore -1431 523 pd scaling;
#X text -1332 562 this is X;
#N canvas 638 321 450 362 sender 0;
#X obj 97 30 inlet;
#X obj 268 31 inlet;
#X obj 144 29 inlet;
#X obj 97 74 spigot 0;
#X obj 153 73 spigot 0;
#X obj 106 287 sel 0;
#X obj 61 294 tgl 15 0 empty empty empty 17 7 0 10 -262144 -1 -1 0
1;
#X msg 333 258 disconnect;
#X obj 106 272 tgl 15 0 empty empty connected 20 7 0 8 -24198 -241291
-1 1 1;
#X obj 99 221 mrpeach/packOSC;
#X obj 99 132 pack f f;
#X obj 97 188 prepend send;
#X obj 100 252 mrpeach/udpsend;
#X obj 123 317 bng 15 250 50 0 empty empty empty 17 7 0 10 -262144
-1 -1;
#X obj 309 194 loadbang;
#X obj 30 111 mapping/speedlimiter 0.02;
#X obj 204 115 mapping/speedlimiter 0.02;
#X msg 98 161 /user-norte \$1 \$2;
#X msg 280 224 connect 192.168.3.163 7112;
#X connect 0 0 3 0;
#X connect 1 0 3 1;
#X connect 1 0 4 1;
#X connect 2 0 4 0;
#X connect 3 0 15 0;
#X connect 4 0 16 0;
#X connect 5 0 13 0;
#X connect 7 0 12 0;
#X connect 8 0 5 0;
#X connect 9 0 12 0;
#X connect 10 0 17 0;
#X connect 11 0 9 0;
#X connect 12 0 8 0;
#X connect 13 0 18 0;
#X connect 14 0 18 0;
#X connect 15 0 10 0;
#X connect 16 0 10 1;
#X connect 17 0 11 0;
#X connect 18 0 12 0;
#X restore -1109 725 pd sender;
#X obj -1037 724 tgl 15 0 empty empty empty 17 7 0 10 -262144 -1 -1
0 1;
#X obj -1065 669 + 0.85;
#X obj -977 534 bng 15 250 50 0 empty empty empty 17 7 0 10 -262144
-1 -1;
#X obj -1046 575 list-minmax;
#X obj -952 580 list-minmax;
#N canvas 136 180 484 510 tRGtables 0;
#X obj 68 -134 until;
#X obj 68 -164 t b l;
#X obj 68 -108 list;
#X obj 156 -83 bang;
#X obj 68 -83 list split 1;
#X obj 68 -44 t b l;
#X obj 100 16 + 1;
#X obj 68 40 % 4;
#X msg 99 -10 1;
#X text 191 -83 <-- separate each single value;
#X text 101 42 <-- counter from 0 to 3;
#X obj 68 76 pack;
#X obj 68 16 f 0;
#X obj 68 98 route 0 1 2;
#X text 146 98 <-- route R \, G & B values;
#X obj 68 -195 inlet;
#X obj -9 183 + 1;
#X obj -37 183 f 0;
#X obj -37 204 %;
#X obj 16 204 - 1;
#X obj -62 160 t f b;
#X obj 141 183 + 1;
#X obj 113 183 f 0;
#X obj 113 204 %;
#X obj 166 204 - 1;
#X obj 88 160 t f b;
#X text -18 254 store R \, G or B values in its related table;
#X obj -62 226 tabwrite \$0-r;
#X obj 88 226 tabwrite \$0-g;
#X obj 16 183 r \$0-size;
#X obj 166 184 r \$0-size;
#X connect 0 0 2 0;
#X connect 1 0 0 0;
#X connect 1 1 2 1;
#X connect 2 0 4 0;
#X connect 3 0 0 1;
#X connect 4 0 5 0;
#X connect 4 1 2 1;
#X connect 4 2 3 0;
#X connect 5 0 12 0;
#X connect 5 1 11 1;
#X connect 6 0 12 1;
#X connect 7 0 11 0;
#X connect 8 0 12 1;
#X connect 11 0 13 0;
#X connect 12 0 6 0;
#X connect 12 0 7 0;
#X connect 13 0 20 0;
#X connect 13 1 25 0;
#X connect 15 0 1 0;
#X connect 16 0 17 1;
#X connect 17 0 16 0;
#X connect 17 0 18 0;
#X connect 18 0 27 1;
#X connect 19 0 18 1;
#X connect 20 0 27 0;
#X connect 20 1 17 0;
#X connect 21 0 22 1;
#X connect 22 0 21 0;
#X connect 22 0 23 0;
#X connect 23 0 28 1;
#X connect 24 0 23 1;
#X connect 25 0 28 0;
#X connect 25 1 22 0;
#X connect 29 0 19 0;
#X connect 30 0 24 0;
#X restore -1126 579 pd tRGtables;
#N canvas 215 278 483 407 dump 0;
#X obj 100 16 inlet;
#X obj 96 180 pix_resize;
#X msg 282 143 dimen \$1 \$2;
#X floatatom 312 53 5 0 0 2 x_size - #0-x_size;
#X floatatom 354 53 5 0 0 2 y_size - #0-y_size;
#X obj 282 119 pack;
#X obj 312 -18 loadbang;
#X obj 342 119 t b f;
#X obj 96 223 pix_dump;
#X obj 139 253 outlet;
#X msg 312 5 8;
#X obj 69 269 outlet;
#X obj 101 67 t a b;
#X obj 282 96 r \$0-x_size;
#X obj 362 96 r \$0-y_size;
#X connect 0 0 12 0;
#X connect 1 0 8 0;
#X connect 2 0 1 0;
#X connect 5 0 2 0;
#X connect 6 0 10 0;
#X connect 7 0 5 0;
#X connect 7 1 5 1;
#X connect 8 0 11 0;
#X connect 8 1 9 0;
#X connect 10 0 3 0;
#X connect 10 0 4 0;
#X connect 12 0 1 0;
#X connect 12 1 8 0;
#X connect 13 0 5 0;
#X connect 14 0 7 0;
#X coords 0 407 1 406 85 54 0;
#X restore -1172 521 pd dump;
#N canvas 520 261 450 300 rgbimage 0;
#X obj -1366 214 pix_texture;
#X obj -1315 129 inlet;
#X obj -1360 129 inlet;
#X floatatom -1289 168 5 0 0 0 - - -;
#X obj -1366 235 rectangle 2 1.333;
#X obj -1366 184 translateXYZ -3.333 2.7777 0;
#X obj -1362 168 spigot 1;
#X connect 0 0 4 0;
#X connect 1 0 6 1;
#X connect 2 0 6 0;
#X connect 3 0 5 2;
#X connect 5 0 0 0;
#X connect 6 0 5 0;
#X restore -1249 252 pd rgbimage;
#X obj -1206 220 tgl 15 0 empty empty empty 17 7 0 10 -262144 -1 -1
0 1;
#X obj -1088 117 tgl 15 0 empty empty empty 17 7 0 10 -262144 -1 -1
0 1;
#N canvas 28 466 450 300 depthImage 0;
#X obj 176 165 pix_texture;
#X obj 181 77 pix_separator;
#X obj 183 56 separator;
#X obj 180 3 inlet;
#X obj 174 186 rectangle 2 1.333;
#X obj 220 5 inlet;
#X obj 175 145 translateXYZ 3 2.777 0;
#X obj 181 28 spigot 1;
#X connect 0 0 4 0;
#X connect 1 0 6 0;
#X connect 2 0 1 0;
#X connect 3 0 7 0;
#X connect 5 0 7 1;
#X connect 6 0 0 0;
#X connect 7 0 2 0;
#X restore -1159 151 pd depthImage;
#X obj -1060 343 tgl 15 0 empty empty empty 17 7 0 10 -262144 -1 -1
0 1;
#N canvas 30 466 450 300 depthImage 0;
#X obj 176 165 pix_texture;
#X obj 181 77 pix_separator;
#X obj 183 56 separator;
#X obj 180 3 inlet;
#X obj 220 5 inlet;
#X floatatom 258 112 5 0 0 0 - - -;
#X obj 174 186 rectangle 4 2.7;
#X obj 174 145 translateXYZ 0 -1.27 0;
#X obj 181 28 spigot 1;
#X connect 0 0 6 0;
#X connect 1 0 7 0;
#X connect 2 0 1 0;
#X connect 3 0 8 0;
#X connect 4 0 8 1;
#X connect 5 0 7 2;
#X connect 7 0 0 0;
#X connect 8 0 2 0;
#X restore -1244 390 pd depthImage;
#X obj -1185 124 t a a;
#X obj -1129 545 t a b;
#X obj -1443 574 s \$0-x;
#X obj -1066 692 s \$0-z;
#X obj -1043 556 tabdump \$0-r;
#X obj -957 559 tabdump \$0-g;
#X obj -825 76 r \$0-distance-max;
#X obj -954 81 r \$0-distance-min;
#N canvas 300 399 303 237 ColorTables 0;
#X obj 131 -48 *;
#X obj 131 -73 t b f;
#X obj -28 -31 table \$0-r;
#X obj 43 -27 table \$0-g;
#X msg 96 62 \; \$1-R resize \$2 \; \$1-G resize \$2 \;;
#X obj 99 22 prepend \$0;
#X obj 131 -23 s \$0-size;
#X obj 73 -99 r \$0-x_size;
#X obj 131 -99 r \$0-y_size;
#X connect 0 0 5 0;
#X connect 0 0 6 0;
#X connect 1 0 0 0;
#X connect 1 1 0 1;
#X connect 5 0 4 0;
#X connect 7 0 0 0;
#X connect 8 0 1 0;
#X restore -1415 80 pd ColorTables;
#X obj -1072 603 tgl 15 0 empty empty empty 17 7 0 10 -262144 -1 -1
0 1;
#X connect 0 0 30 0;
#X connect 0 1 36 0;
#X connect 2 0 1 0;
#X connect 3 0 14 0;
#X connect 3 0 35 0;
#X connect 4 0 6 0;
#X connect 5 0 7 0;
#X connect 6 0 3 3;
#X connect 7 0 3 2;
#X connect 8 0 3 0;
#X connect 10 0 24 0;
#X connect 11 0 2 0;
#X connect 12 0 16 4;
#X connect 13 0 12 0;
#X connect 14 0 15 0;
#X connect 14 1 16 3;
#X connect 14 1 20 0;
#X connect 14 2 13 0;
#X connect 14 3 16 1;
#X connect 14 4 13 1;
#X connect 14 4 16 2;
#X connect 15 0 16 0;
#X connect 16 0 29 0;
#X connect 19 0 10 0;
#X connect 20 0 22 0;
#X connect 20 0 38 0;
#X connect 23 0 22 2;
#X connect 24 0 22 1;
#X connect 24 0 39 0;
#X connect 25 0 40 0;
#X connect 25 0 41 0;
#X connect 26 1 19 0;
#X connect 27 1 19 1;
#X connect 29 0 17 0;
#X connect 29 1 37 0;
#X connect 31 0 30 1;
#X connect 32 0 33 1;
#X connect 34 0 35 1;
#X connect 36 0 3 0;
#X connect 36 1 33 0;
#X connect 37 0 28 0;
#X connect 37 1 25 0;
#X connect 40 0 26 0;
#X connect 41 0 27 0;
#X connect 42 0 4 0;
#X connect 43 0 5 0;
#X connect 45 0 17 1;
#X restore -820 426 pd main;
#X obj -457 64 cnv 15 170 25 empty empty Depth-Tracker 20 12 0 18 -1
-258113 0;
#X msg -688 441 0;
#X obj -516 361 f;
#N canvas 1 114 612 407 saveandload 0;
#X obj 194 267 msgfile;
#X msg 178 158 clear;
#X msg 251 221 flush;
#X obj 116 196 prepend write;
#N canvas 625 369 450 300 path 0;
#X obj 101 79 inlet;
#X obj 101 105 getdir;
#X obj 103 125 makefilename %s/data/;
#X msg 135 184 symbol;
#X obj 107 181 l2s;
#X obj 97 227 outlet;
#X obj 104 147 list append \$1-trim.txt;
#X obj 135 163 loadbang;
#X connect 0 0 1 0;
#X connect 1 0 2 0;
#X connect 2 0 6 0;
#X connect 3 0 4 1;
#X connect 4 0 5 0;
#X connect 6 0 4 0;
#X connect 7 0 3 0;
#X restore 474 88 pd path;
#X obj 315 194 prepend read;
#X obj 58 256 prepend add;
#X obj 113 93 t b a b;
#X obj 113 63 inlet;
#X obj 175 72 inlet;
#X obj 119 169 symbol;
#X obj 283 106 inlet;
#X obj 278 140 t b a;
#X obj 190 321 s \$0-data-values;
#X connect 0 0 13 0;
#X connect 1 0 0 0;
#X connect 2 0 0 0;
#X connect 3 0 0 0;
#X connect 5 0 0 0;
#X connect 6 0 0 0;
#X connect 7 0 10 0;
#X connect 7 1 6 0;
#X connect 7 2 1 0;
#X connect 8 0 7 0;
#X connect 9 0 10 1;
#X connect 10 0 3 0;
#X connect 11 0 12 0;
#X connect 12 0 2 0;
#X connect 12 1 5 0;
#X restore -332 515 pd saveandload;
#X obj -532 329 r \$0-save-now;
#X obj -594 409 f;
#X obj -591 388 r \$0-save-now;
#X obj -484 534 pack f f f f f f f;
#X obj -656 383 f;
#X obj -653 362 r \$0-save-now;
#X obj -827 385 f;
#X obj -824 364 r \$0-save-now;
#X obj -780 143 f;
#X obj -777 122 r \$0-save-now;
#X obj -669 520 f;
#X obj -666 499 r \$0-save-now;
#X obj -324 410 r \$0-save-now;
#X obj -327 435 del 500;
#X obj -312 363 s \$0-save-now;
#X obj -288 266 bng 15 250 50 0 empty empty empty 17 7 0 10 -262144
-1 -1;
#X obj -298 336 t b a;
#X obj -294 310 savepanel;
#X obj -221 154 r \$0-data-values;
#X obj -221 180 unpack f f f f f f f;
#X obj -167 275 bng 15 250 50 0 empty empty empty 17 7 0 10 -262144
-1 -1;
#X obj -178 331 openpanel;
#X connect 2 0 3 0;
#X connect 3 0 4 0;
#X connect 4 0 29 1;
#X connect 5 0 26 1;
#X connect 6 0 7 0;
#X connect 6 0 31 1;
#X connect 8 0 23 1;
#X connect 9 0 10 0;
#X connect 10 0 6 0;
#X connect 11 0 12 0;
#X connect 12 0 8 0;
#X connect 13 0 14 0;
#X connect 13 0 33 1;
#X connect 15 0 16 0;
#X connect 16 0 13 0;
#X connect 17 0 18 0;
#X connect 17 0 35 1;
#X connect 19 0 22 0;
#X connect 22 0 17 0;
#X connect 23 0 28 4;
#X connect 25 0 23 0;
#X connect 26 0 28 1;
#X connect 27 0 26 0;
#X connect 28 0 24 0;
#X connect 29 0 28 2;
#X connect 30 0 29 0;
#X connect 31 0 28 3;
#X connect 32 0 31 0;
#X connect 33 0 28 5;
#X connect 34 0 33 0;
#X connect 35 0 28 6;
#X connect 36 0 35 0;
#X connect 37 0 38 0;
#X connect 38 0 28 0;
#X connect 40 0 42 0;
#X connect 41 0 39 0;
#X connect 41 1 24 1;
#X connect 42 0 41 0;
#X connect 43 0 44 0;
#X connect 44 1 5 0;
#X connect 44 2 4 0;
#X connect 44 3 6 0;
#X connect 44 4 8 0;
#X connect 44 5 13 0;
#X connect 44 6 17 0;
#X connect 45 0 46 0;
#X connect 46 0 24 2;
