#N canvas 611 84 565 994 10;
#X msg 245 414 disconnect;
#X obj 224 484 tgl 15 0 empty empty 1=connected 20 8 0 8 -4034 -257985
-1 1 1;
#X text 277 468 see:;
#X msg 126 210 bufsize 1024;
#X obj 214 507 sel 0;
#X obj 125 364 bng 15 250 50 0 empty empty empty 17 7 0 10 -262144
-1 -1;
#X obj 224 449 mrpeach/udpsend;
#X obj 256 313 mrpeach/packOSC;
#X obj 193 105 list append;
#X obj 219 140 list append;
#X obj 222 166 list trim;
#X msg 281 248 [;
#X msg 222 245 ];
#X obj 241 220 t b a b;
#X obj 127 181 loadbang;
#N canvas 67 107 450 300 getMobilData 0;
#X obj 105 117 mrpeach/unpackOSC;
#X obj 99 93 mrpeach/pipelist;
#N canvas 886 246 796 330 mobil 0;
#X msg 268 130 /acc \$1 \$2 \$3;
#X msg 442 131 /ori \$1 \$2 \$3;
#X obj 266 202 list append;
#X obj 258 234 outlet;
#X obj 262 -44 inlet;
#X obj 465 0 inlet;
#X obj 232 159 list append;
#X msg 248 12 /touch 0 0;
#X obj 243 -7 t b a;
#X connect 0 0 6 1;
#X connect 1 0 2 1;
#X connect 2 0 3 0;
#X connect 4 0 8 0;
#X connect 5 0 1 0;
#X connect 6 0 2 0;
#X connect 7 0 6 0;
#X connect 8 0 7 0;
#X connect 8 1 0 0;
#X restore 106 210 pd mobil;
#X obj 102 69 mrpeach/udpreceive 7112;
#X text 151 42 mobil;
#X obj 110 241 outlet;
#X obj 100 162 mrpeach/routeOSC /acc /ori;
#X connect 0 0 6 0;
#X connect 1 0 0 0;
#X connect 2 0 5 0;
#X connect 3 0 1 0;
#X connect 6 0 2 0;
#X connect 6 1 2 1;
#X restore 207 18 pd getMobilData;
#N canvas 468 323 450 300 getNorthData 0;
#X obj 100 119 mrpeach/unpackOSC;
#X obj 100 94 mrpeach/pipelist;
#X obj 103 70 mrpeach/udpreceive 7110;
#X text 142 32 norte;
#X obj 97 203 outlet;
#X msg 98 165 /norte \$1 \$2;
#X obj 96 140 mrpeach/routeOSC /user-norte;
#X connect 0 0 6 0;
#X connect 1 0 0 0;
#X connect 2 0 1 0;
#X connect 5 0 4 0;
#X connect 6 0 5 0;
#X restore 268 52 pd getNorthData;
#N canvas 67 113 450 300 getSouthData 0;
#X obj 100 119 mrpeach/unpackOSC;
#X obj 100 94 mrpeach/pipelist;
#X text 142 32 norte;
#X obj 97 203 outlet;
#X obj 103 70 mrpeach/udpreceive 7111;
#X obj 96 140 mrpeach/routeOSC /user-sur;
#X msg 98 165 /sur \$1 \$2;
#X connect 0 0 5 0;
#X connect 1 0 0 0;
#X connect 4 0 1 0;
#X connect 5 0 6 0;
#X connect 6 0 3 0;
#X restore 342 86 pd getSouthData;
#X obj 396 477 print;
#X obj 34 51 bng 15 250 50 0 empty empty empty 17 7 0 10 -262144 -1
-1;
#X text -38 40 start;
#N canvas 712 237 642 694 getUserPresence 0;
#X obj 106 123 mrpeach/unpackOSC;
#X obj 109 103 mrpeach/pipelist;
#X obj 112 78 mrpeach/udpreceive 12345;
#X obj 101 167 mrpeach/routeOSC /norte /sur;
#X floatatom 195 204 5 0 0 0 - - -;
#X floatatom 98 193 5 0 0 0 - - -;
#X floatatom 99 337 5 0 0 0 - - -;
#X obj 232 562 print presence-norte;
#X obj 348 569 print presence-sur;
#X obj 104 144 mrpeach/routeOSC /user-none;
#X obj 193 224 t b f;
#X obj 103 287 expr if($f1==0 && $f2==0 \, 0 \, 1);
#X text 153 340 1 hay alguen \, 0 no;
#X obj 17 320 loadbang;
#X msg 132 459 disconnect;
#X obj 139 521 tgl 15 0 empty empty 1=connected 20 8 0 8 -4034 -257985
-1 1 1;
#X text 192 505 see:;
#X obj 125 593 sel 0;
#X obj 42 469 bng 15 250 50 0 empty empty empty 17 7 0 10 -262144 -1
-1;
#X obj 139 486 mrpeach/udpsend;
#X obj 138 441 mrpeach/packOSC;
#X text 321 438 to blender;
#X obj 260 459 print uuuuuuuuu;
#X msg 391 519 send /game/user_presence 1;
#X obj 96 376 t f b;
#X msg 142 406 send /game/user_presence \$1;
#X msg -45 437 connect 192.168.106.123 8887;
#X connect 0 0 9 0;
#X connect 1 0 0 0;
#X connect 2 0 1 0;
#X connect 3 0 5 0;
#X connect 3 1 4 0;
#X connect 4 0 10 0;
#X connect 5 0 11 0;
#X connect 6 0 24 0;
#X connect 9 0 3 0;
#X connect 10 0 5 0;
#X connect 10 1 11 1;
#X connect 11 0 6 0;
#X connect 13 0 6 0;
#X connect 14 0 19 0;
#X connect 15 0 17 0;
#X connect 17 0 18 0;
#X connect 18 0 26 0;
#X connect 19 0 15 0;
#X connect 20 0 19 0;
#X connect 23 0 20 0;
#X connect 24 0 25 0;
#X connect 24 1 26 0;
#X connect 25 0 20 0;
#X connect 25 0 22 0;
#X connect 26 0 19 0;
#X restore 354 210 pd getUserPresence;
#X obj 66 55 loadbang;
#N canvas 758 729 450 300 wa 0;
#X obj 145 60 inlet;
#X obj 151 95 > 65;
#X obj 145 120 sel 1;
#X obj 150 208 shell;
#X msg 147 167 killall -9 pd-extended;
#X connect 0 0 1 0;
#X connect 1 0 2 0;
#X connect 2 0 4 0;
#X connect 4 0 3 0;
#X restore 360 415 pd wa;
#X obj 236 382 spigot 1;
#X obj 315 373 tgl 15 0 empty empty empty 17 7 0 10 -262144 -1 -1 0
1;
#X obj 341 349 loadbang;
#X obj 175 541 print;
#X obj 229 194 prepend send;
#X obj 363 164 prepend send;
#X msg 39 330 connect 127.0.0.1 8888;
#X connect 0 0 6 0;
#X connect 1 0 4 0;
#X connect 3 0 7 0;
#X connect 4 0 5 0;
#X connect 5 0 30 0;
#X connect 6 0 1 0;
#X connect 7 0 24 0;
#X connect 8 0 9 0;
#X connect 9 0 10 0;
#X connect 10 0 28 0;
#X connect 11 0 7 0;
#X connect 12 0 7 0;
#X connect 13 0 12 0;
#X connect 13 1 7 0;
#X connect 13 1 27 0;
#X connect 13 2 11 0;
#X connect 14 0 3 0;
#X connect 16 0 29 0;
#X connect 17 0 9 1;
#X connect 22 0 6 0;
#X connect 24 0 6 0;
#X connect 28 0 13 0;
#X connect 29 0 7 0;
#X connect 29 0 18 0;
#X connect 30 0 6 0;
