#N canvas 93 303 450 368 10;
#X obj 160 36 symbol \$1;
#X obj 158 -57 initbang;
#N canvas 16 132 592 344 dynCr 0;
#X msg 173 47 vis 1 \, clear \, vis 0;
#X msg 160 71 obj 10 10 inlet;
#X obj 141 -48 inlet;
#X obj 144 93 t a b;
#N canvas 0 22 450 300 counter 0;
#X obj 151 113 + 40;
#X obj 103 114 f 40;
#X obj 90 82 inlet;
#X obj 96 146 outlet;
#X obj 162 57 inlet;
#X msg 160 80 40;
#X obj 265 184 + 1;
#X obj 206 156 b;
#X obj 212 221 outlet;
#X obj 208 180 f 1;
#X msg 243 133 1;
#X connect 0 0 1 1;
#X connect 1 0 0 0;
#X connect 1 0 3 0;
#X connect 1 0 7 0;
#X connect 2 0 1 0;
#X connect 4 0 5 0;
#X connect 4 0 10 0;
#X connect 5 0 1 1;
#X connect 6 0 9 1;
#X connect 7 0 9 0;
#X connect 9 0 6 0;
#X connect 9 0 8 0;
#X connect 10 0 9 1;
#X restore 174 117 pd counter;
#X obj 220 -20 inlet;
#X obj 152 152 pack s f;
#X msg 150 182 obj 10 \$2 oneroute \$1;
#X obj 143 -20 t a b;
#X msg 294 175 obj 10 \$1 outlet;
#X obj 292 112 f;
#X obj 290 92 del 250;
#X floatatom 233 148 5 0 0 0 - - -;
#X obj 292 132 * 40;
#X obj 294 152 + 40;
#X floatatom 435 113 5 0 0 0 - - -;
#X obj 428 34 bng 15 250 50 0 empty empty empty 17 7 0 10 -262144 -1
-1;
#X obj 435 220;
#X obj 428 64 mycounter 3;
#X obj 466 159 + 1;
#X obj 437 136 t f f;
#X obj 431 195 pack f f;
#X msg 311 202 connect \$1 0 \$2 0;
#X obj 448 33 del 300;
#X obj 196 91 bng 15 250 50 0 empty empty empty 17 7 0 10 -262144 -1
-1;
#X obj 338 48 print;
#X obj 373 74;
#X obj 183 249 s pd-\$0-dynRoute;
#X obj 172 12 purepd/once;
#X obj 317 67 purepd/once;
#X connect 0 0 27 0;
#X connect 1 0 27 0;
#X connect 2 0 8 0;
#X connect 3 0 6 0;
#X connect 3 1 4 0;
#X connect 4 0 6 1;
#X connect 4 1 10 1;
#X connect 4 1 12 0;
#X connect 5 0 4 1;
#X connect 5 0 28 1;
#X connect 5 0 29 1;
#X connect 6 0 7 0;
#X connect 7 0 27 0;
#X connect 8 0 3 0;
#X connect 8 1 28 0;
#X connect 9 0 27 0;
#X connect 10 0 13 0;
#X connect 11 0 10 0;
#X connect 13 0 14 0;
#X connect 14 0 9 0;
#X connect 15 0 20 0;
#X connect 16 0 18 0;
#X connect 18 0 15 0;
#X connect 19 0 21 1;
#X connect 20 0 21 0;
#X connect 20 1 19 0;
#X connect 21 0 22 0;
#X connect 22 0 27 0;
#X connect 23 0 18 0;
#X connect 24 0 4 0;
#X connect 28 0 0 0;
#X connect 28 0 1 0;
#X connect 28 0 23 0;
#X connect 28 0 29 0;
#X connect 29 0 11 0;
#X connect 29 0 25 0;
#X restore 159 234 pd dynCr;
#N canvas 3 105 450 300 / 0;
#X msg 231 167 symbol;
#X obj 232 150 initbang;
#X obj 140 166 inlet;
#X obj 139 232 outlet;
#X obj 139 211 zexy/list2symbol;
#X obj 138 191 cyclone/prepend /;
#X connect 0 0 4 1;
#X connect 1 0 0 0;
#X connect 2 0 5 0;
#X connect 4 0 3 0;
#X connect 5 0 4 0;
#X restore 158 196 pd /;
#X obj 340 219 s pd-mroute.pd;
#X obj 331 101 del 400;
#X obj 332 127 t b b;
#X obj 27 136 inlet;
#X obj 26 205 outlet;
#N canvas 62 105 450 300 \$0-dynRoute 1;
#X restore 25 170 pd \$0-dynRoute;
#X msg 217 101 symbol /;
#X obj 158 170 list-abs/list-drip;
#X obj 160 86 cyclone/tosymbol;
#X obj 162 130 zexy/symbol2list;
#X msg 344 178 connect 9 0 8 0;
#X msg 335 152 connect 7 0 9 0;
#X connect 0 0 12 0;
#X connect 1 0 10 0;
#X connect 1 0 0 0;
#X connect 3 0 2 0;
#X connect 5 0 6 0;
#X connect 6 0 14 0;
#X connect 6 1 15 0;
#X connect 10 0 13 1;
#X connect 11 0 3 0;
#X connect 11 1 2 1;
#X connect 11 1 5 0;
#X connect 12 0 13 0;
#X connect 13 0 11 0;
#X connect 14 0 4 0;
#X connect 14 0 10 0;
#X connect 15 0 4 0;
