#N canvas 67 95 450 300 10;
#X obj 229 214 outlet;
#X obj 231 160 initbang;
#X obj 304 155 loadbang;
#X obj 325 215 bng 15 250 50 0 empty empty empty 17 7 0 10 -262144
-1 -1;
#X connect 1 0 0 0;
#X connect 1 0 3 0;
#X connect 2 0 0 0;
